<?xml version="1.0" encoding="UTF-8"?>
<svg xmlns="http://www.w3.org/2000/svg" xmlns:xlink="http://www.w3.org/1999/xlink" width="1149.5pt" height="863pt" viewBox="0 0 1149.5 863" version="1.1">
<g id="surface6">
<path style="fill:none;stroke-width:1;stroke-linecap:butt;stroke-linejoin:miter;stroke:rgb(0%,0%,100%);stroke-opacity:0.5;stroke-miterlimit:10;" d="M 95 153 L 182 153 "/>
<path style="fill:none;stroke-width:1;stroke-linecap:butt;stroke-linejoin:miter;stroke:rgb(0%,0%,100%);stroke-opacity:0.5;stroke-miterlimit:10;" d="M 95 181 L 182 180 "/>
<path style="fill:none;stroke-width:1;stroke-linecap:butt;stroke-linejoin:miter;stroke:rgb(0%,0%,100%);stroke-opacity:0.5;stroke-miterlimit:10;" d="M 95 241 L 182 240 "/>
<path style="fill:none;stroke-width:1;stroke-linecap:butt;stroke-linejoin:miter;stroke:rgb(0%,0%,100%);stroke-opacity:0.5;stroke-miterlimit:10;" d="M 95 358 L 182 358 "/>
<path style="fill:none;stroke-width:1;stroke-linecap:butt;stroke-linejoin:miter;stroke:rgb(0%,0%,100%);stroke-opacity:0.5;stroke-miterlimit:10;" d="M 95 579 L 182 579 "/>
<path style="fill:none;stroke-width:1;stroke-linecap:butt;stroke-linejoin:miter;stroke:rgb(0%,0%,100%);stroke-opacity:0.5;stroke-miterlimit:10;" d="M 95 631 L 182 669 "/>
<path style="fill:none;stroke-width:1;stroke-linecap:butt;stroke-linejoin:miter;stroke:rgb(0%,0%,100%);stroke-opacity:0.5;stroke-miterlimit:10;" d="M 182 153 L 270 237 "/>
<path style="fill:none;stroke-width:1;stroke-linecap:butt;stroke-linejoin:miter;stroke:rgb(0%,0%,100%);stroke-opacity:0.5;stroke-miterlimit:10;" d="M 182 180 L 270 237 "/>
<path style="fill:none;stroke-width:1;stroke-linecap:butt;stroke-linejoin:miter;stroke:rgb(0%,0%,100%);stroke-opacity:0.5;stroke-miterlimit:10;" d="M 182 240 L 270 288.5 "/>
<path style="fill:none;stroke-width:1;stroke-linecap:butt;stroke-linejoin:miter;stroke:rgb(0%,0%,100%);stroke-opacity:0.5;stroke-miterlimit:10;" d="M 182 240 L 270 288.5 "/>
<path style="fill:none;stroke-width:1;stroke-linecap:butt;stroke-linejoin:miter;stroke:rgb(0%,0%,100%);stroke-opacity:0.5;stroke-miterlimit:10;" d="M 182 358 L 270 288.5 "/>
<path style="fill:none;stroke-width:1;stroke-linecap:butt;stroke-linejoin:miter;stroke:rgb(0%,0%,100%);stroke-opacity:0.5;stroke-miterlimit:10;" d="M 182 358 L 270 288.5 "/>
<path style="fill:none;stroke-width:1;stroke-linecap:butt;stroke-linejoin:miter;stroke:rgb(0%,0%,100%);stroke-opacity:0.5;stroke-miterlimit:10;" d="M 270 237 L 501 188 "/>
<path style="fill:none;stroke-width:1;stroke-linecap:butt;stroke-linejoin:miter;stroke:rgb(0%,0%,100%);stroke-opacity:0.5;stroke-miterlimit:10;" d="M 270 237 L 501 237 "/>
<path style="fill:none;stroke-width:1;stroke-linecap:butt;stroke-linejoin:miter;stroke:rgb(0%,0%,100%);stroke-opacity:0.5;stroke-miterlimit:10;" d="M 501 188 L 615 188 "/>
<path style="fill:none;stroke-width:1;stroke-linecap:butt;stroke-linejoin:miter;stroke:rgb(0%,0%,100%);stroke-opacity:0.5;stroke-miterlimit:10;" d="M 501 237 L 615 188 "/>
<path style="fill:none;stroke-width:1;stroke-linecap:butt;stroke-linejoin:miter;stroke:rgb(0%,0%,100%);stroke-opacity:0.5;stroke-miterlimit:10;" d="M 501 237 L 615 237 "/>
<path style="fill:none;stroke-width:1;stroke-linecap:butt;stroke-linejoin:miter;stroke:rgb(0%,0%,100%);stroke-opacity:0.5;stroke-miterlimit:10;" d="M 270 237 L 501 188 "/>
<path style="fill:none;stroke-width:1;stroke-linecap:butt;stroke-linejoin:miter;stroke:rgb(0%,0%,100%);stroke-opacity:0.5;stroke-miterlimit:10;" d="M 270 237 L 501 237 "/>
<path style="fill:none;stroke-width:1;stroke-linecap:butt;stroke-linejoin:miter;stroke:rgb(0%,0%,100%);stroke-opacity:0.5;stroke-miterlimit:10;" d="M 270 280 L 322 474 "/>
<path style="fill:none;stroke-width:1;stroke-linecap:butt;stroke-linejoin:miter;stroke:rgb(0%,0%,100%);stroke-opacity:0.5;stroke-miterlimit:10;" d="M 270 297 L 322 474 "/>
<path style="fill:none;stroke-width:1;stroke-linecap:butt;stroke-linejoin:miter;stroke:rgb(0%,0%,100%);stroke-opacity:0.5;stroke-miterlimit:10;" d="M 270 237 L 501 188 "/>
<path style="fill:none;stroke-width:1;stroke-linecap:butt;stroke-linejoin:miter;stroke:rgb(0%,0%,100%);stroke-opacity:0.5;stroke-miterlimit:10;" d="M 270 237 L 501 237 "/>
<path style="fill:none;stroke-width:1;stroke-linecap:butt;stroke-linejoin:miter;stroke:rgb(0%,0%,100%);stroke-opacity:0.5;stroke-miterlimit:10;" d="M 615 428 L 615 237 "/>
<path style="fill:none;stroke-width:1;stroke-linecap:butt;stroke-linejoin:miter;stroke:rgb(0%,0%,100%);stroke-opacity:0.5;stroke-miterlimit:10;" d="M 615 428 L 615 188 "/>
<path style="fill:none;stroke-width:1;stroke-linecap:butt;stroke-linejoin:miter;stroke:rgb(0%,0%,100%);stroke-opacity:0.5;stroke-miterlimit:10;" d="M 501 412 L 615 428 "/>
<path style="fill:none;stroke-width:1;stroke-linecap:butt;stroke-linejoin:miter;stroke:rgb(0%,0%,100%);stroke-opacity:0.5;stroke-miterlimit:10;" d="M 501 445 L 615 428 "/>
<path style="fill:none;stroke-width:1;stroke-linecap:butt;stroke-linejoin:miter;stroke:rgb(0%,0%,100%);stroke-opacity:0.5;stroke-miterlimit:10;" d="M 615 188 L 615 95 "/>
<path style="fill:none;stroke-width:1;stroke-linecap:butt;stroke-linejoin:miter;stroke:rgb(0%,0%,100%);stroke-opacity:0.5;stroke-miterlimit:10;" d="M 615 188 L 757 188 "/>
<path style="fill:none;stroke-width:1;stroke-linecap:butt;stroke-linejoin:miter;stroke:rgb(0%,0%,100%);stroke-opacity:0.5;stroke-miterlimit:10;" d="M 615 237 L 757 188 "/>
<path style="fill:none;stroke-width:1;stroke-linecap:butt;stroke-linejoin:miter;stroke:rgb(0%,0%,100%);stroke-opacity:0.5;stroke-miterlimit:10;" d="M 322 474 L 411 517 "/>
<path style="fill:none;stroke-width:1;stroke-linecap:butt;stroke-linejoin:miter;stroke:rgb(0%,0%,100%);stroke-opacity:0.5;stroke-miterlimit:10;" d="M 411 517 L 501 517 "/>
<path style="fill:none;stroke-width:1;stroke-linecap:butt;stroke-linejoin:miter;stroke:rgb(0%,0%,100%);stroke-opacity:0.5;stroke-miterlimit:10;" d="M 411 597 L 411 517 "/>
<path style="fill:none;stroke-width:1;stroke-linecap:butt;stroke-linejoin:miter;stroke:rgb(0%,0%,100%);stroke-opacity:0.5;stroke-miterlimit:10;" d="M 411 597 L 575 729 "/>
<path style="fill:none;stroke-width:1;stroke-linecap:butt;stroke-linejoin:miter;stroke:rgb(0%,0%,100%);stroke-opacity:0.5;stroke-miterlimit:10;" d="M 412 630 L 575 729 "/>
<path style="fill:none;stroke-width:1;stroke-linecap:butt;stroke-linejoin:miter;stroke:rgb(0%,0%,100%);stroke-opacity:0.5;stroke-miterlimit:10;" d="M 411 729 L 575 729 "/>
<path style="fill:none;stroke-width:1;stroke-linecap:butt;stroke-linejoin:miter;stroke:rgb(0%,0%,100%);stroke-opacity:0.5;stroke-miterlimit:10;" d="M 501 549 L 648 310 "/>
<path style="fill:none;stroke-width:1;stroke-linecap:butt;stroke-linejoin:miter;stroke:rgb(0%,0%,100%);stroke-opacity:0.5;stroke-miterlimit:10;" d="M 501 549 L 757 549 "/>
<path style="fill:none;stroke-width:1;stroke-linecap:butt;stroke-linejoin:miter;stroke:rgb(0%,0%,100%);stroke-opacity:0.5;stroke-miterlimit:10;" d="M 501 549 L 757 571 "/>
<path style="fill:none;stroke-width:1;stroke-linecap:butt;stroke-linejoin:miter;stroke:rgb(0%,0%,100%);stroke-opacity:0.5;stroke-miterlimit:10;" d="M 501 549 L 501 517 "/>
<path style="fill:none;stroke-width:1;stroke-linecap:butt;stroke-linejoin:miter;stroke:rgb(0%,0%,100%);stroke-opacity:0.5;stroke-miterlimit:10;" d="M 757 188 L 757 220 "/>
<path style="fill:none;stroke-width:1;stroke-linecap:butt;stroke-linejoin:miter;stroke:rgb(0%,0%,100%);stroke-opacity:0.5;stroke-miterlimit:10;" d="M 182 579 L 270 597 "/>
<path style="fill:none;stroke-width:1;stroke-linecap:butt;stroke-linejoin:miter;stroke:rgb(0%,0%,100%);stroke-opacity:0.5;stroke-miterlimit:10;" d="M 182 669 L 270 597 "/>
<path style="fill:none;stroke-width:1;stroke-linecap:butt;stroke-linejoin:miter;stroke:rgb(0%,0%,100%);stroke-opacity:0.5;stroke-miterlimit:10;" d="M 270 597 L 411 597 "/>
<path style="fill:none;stroke-width:1;stroke-linecap:butt;stroke-linejoin:miter;stroke:rgb(0%,0%,100%);stroke-opacity:0.5;stroke-miterlimit:10;" d="M 270 397 L 322 474 "/>
<path style="fill:none;stroke-width:1;stroke-linecap:butt;stroke-linejoin:miter;stroke:rgb(0%,0%,100%);stroke-opacity:0.5;stroke-miterlimit:10;" d="M 501 299 L 501 412 "/>
<path style="fill:none;stroke-width:1;stroke-linecap:butt;stroke-linejoin:miter;stroke:rgb(0%,0%,100%);stroke-opacity:0.5;stroke-miterlimit:10;" d="M 648 310 L 615 95 "/>
<path style="fill:none;stroke-width:1;stroke-linecap:butt;stroke-linejoin:miter;stroke:rgb(0%,0%,100%);stroke-opacity:0.5;stroke-miterlimit:10;" d="M 648 310 L 615 188 "/>
<path style="fill:none;stroke-width:1;stroke-linecap:butt;stroke-linejoin:miter;stroke:rgb(0%,0%,100%);stroke-opacity:0.5;stroke-miterlimit:10;" d="M 757 571 L 972 611 "/>
<path style="fill:none;stroke-width:1;stroke-linecap:butt;stroke-linejoin:miter;stroke:rgb(0%,0%,100%);stroke-opacity:0.5;stroke-miterlimit:10;" d="M 182 669 L 757 669 "/>
<path style="fill:none;stroke-width:1;stroke-linecap:butt;stroke-linejoin:miter;stroke:rgb(0%,0%,100%);stroke-opacity:0.5;stroke-miterlimit:10;" d="M 395 393 L 270 237 "/>
<path style="fill:none;stroke-width:1;stroke-linecap:butt;stroke-linejoin:miter;stroke:rgb(0%,0%,100%);stroke-opacity:0.5;stroke-miterlimit:10;" d="M 395 393 L 270 288.5 "/>
<path style="fill:none;stroke-width:1;stroke-linecap:butt;stroke-linejoin:miter;stroke:rgb(0%,0%,100%);stroke-opacity:0.5;stroke-miterlimit:10;" d="M 972 657 L 972 611 "/>
<path style="fill:none;stroke-width:1;stroke-linecap:butt;stroke-linejoin:miter;stroke:rgb(0%,0%,100%);stroke-opacity:0.5;stroke-miterlimit:10;" d="M 648 310 L 615 237 "/>
<path style="fill:none;stroke-width:1;stroke-linecap:butt;stroke-linejoin:miter;stroke:rgb(0%,0%,100%);stroke-opacity:0.5;stroke-miterlimit:10;" d="M 648 310 L 615 428 "/>
<path style="fill:none;stroke-width:1;stroke-linecap:butt;stroke-linejoin:miter;stroke:rgb(0%,0%,100%);stroke-opacity:0.5;stroke-miterlimit:10;" d="M 501 237 L 501 299 "/>
<path style="fill:none;stroke-width:1;stroke-linecap:butt;stroke-linejoin:miter;stroke:rgb(0%,0%,0%);stroke-opacity:1;stroke-miterlimit:10;" d="M 1007.5 560 L 1101.5 560 L 1101.5 598 L 1007.5 598 Z M 1007.5 560 "/>
<path style=" stroke:none;fill-rule:nonzero;fill:rgb(96.078431%,91.372549%,69.411765%);fill-opacity:0.6;" d="M 1007.5 560 L 1101.5 560 L 1101.5 598 L 1007.5 598 Z M 1007.5 560 "/>
<path style="fill:none;stroke-width:1;stroke-linecap:butt;stroke-linejoin:miter;stroke:rgb(0%,0%,0%);stroke-opacity:1;stroke-miterlimit:10;" d=""/>
<path style="fill:none;stroke-width:1;stroke-linecap:butt;stroke-linejoin:miter;stroke:rgb(0%,0%,0%);stroke-opacity:1;stroke-miterlimit:10;" d="M 69.5 415 L 192.5 415 L 192.5 453 L 69.5 453 Z M 69.5 415 "/>
<path style=" stroke:none;fill-rule:nonzero;fill:rgb(96.078431%,91.372549%,69.411765%);fill-opacity:0.6;" d="M 69.5 415 L 192.5 415 L 192.5 453 L 69.5 453 Z M 69.5 415 "/>
<path style="fill:none;stroke-width:1;stroke-linecap:butt;stroke-linejoin:miter;stroke:rgb(0%,0%,0%);stroke-opacity:1;stroke-miterlimit:10;" d=""/>
<path style="fill:none;stroke-width:1;stroke-linecap:butt;stroke-linejoin:miter;stroke:rgb(0%,0%,0%);stroke-opacity:1;stroke-miterlimit:10;" d="M 388.5 721 L 433.5 721 L 433.5 737 L 388.5 737 Z M 388.5 721 "/>
<path style=" stroke:none;fill-rule:nonzero;fill:rgb(96.078431%,91.372549%,69.411765%);fill-opacity:0.6;" d="M 388.5 721 L 433.5 721 L 433.5 737 L 388.5 737 Z M 388.5 721 "/>
<path style="fill:none;stroke-width:1;stroke-linecap:butt;stroke-linejoin:miter;stroke:rgb(0%,0%,0%);stroke-opacity:1;stroke-miterlimit:10;" d=""/>
<path style="fill:none;stroke-width:1;stroke-linecap:butt;stroke-linejoin:miter;stroke:rgb(0%,0%,0%);stroke-opacity:1;stroke-miterlimit:10;" d="M 734.5 661 L 779.5 661 L 779.5 677 L 734.5 677 Z M 734.5 661 "/>
<path style=" stroke:none;fill-rule:nonzero;fill:rgb(96.078431%,91.372549%,69.411765%);fill-opacity:0.6;" d="M 734.5 661 L 779.5 661 L 779.5 677 L 734.5 677 Z M 734.5 661 "/>
<path style="fill:none;stroke-width:1;stroke-linecap:butt;stroke-linejoin:miter;stroke:rgb(0%,0%,0%);stroke-opacity:1;stroke-miterlimit:10;" d=""/>
<path style="fill:none;stroke-width:1;stroke-linecap:butt;stroke-linejoin:miter;stroke:rgb(0%,0%,0%);stroke-opacity:1;stroke-miterlimit:10;" d="M 734.5 541 L 779.5 541 L 779.5 557 L 734.5 557 Z M 734.5 541 "/>
<path style=" stroke:none;fill-rule:nonzero;fill:rgb(96.078431%,91.372549%,69.411765%);fill-opacity:0.6;" d="M 734.5 541 L 779.5 541 L 779.5 557 L 734.5 557 Z M 734.5 541 "/>
<path style="fill:none;stroke-width:1;stroke-linecap:butt;stroke-linejoin:miter;stroke:rgb(0%,0%,0%);stroke-opacity:1;stroke-miterlimit:10;" d=""/>
<path style="fill:none;stroke-width:1;stroke-linecap:butt;stroke-linejoin:miter;stroke:rgb(0%,0%,0%);stroke-opacity:1;stroke-miterlimit:10;" d="M 734.5 180 L 779.5 180 L 779.5 196 L 734.5 196 Z M 734.5 180 "/>
<path style=" stroke:none;fill-rule:nonzero;fill:rgb(96.078431%,91.372549%,69.411765%);fill-opacity:0.6;" d="M 734.5 180 L 779.5 180 L 779.5 196 L 734.5 196 Z M 734.5 180 "/>
<path style="fill:none;stroke-width:1;stroke-linecap:butt;stroke-linejoin:miter;stroke:rgb(0%,0%,0%);stroke-opacity:1;stroke-miterlimit:10;" d=""/>
<path style="fill:none;stroke-width:1;stroke-linecap:butt;stroke-linejoin:miter;stroke:rgb(0%,0%,0%);stroke-opacity:1;stroke-miterlimit:10;" d="M 734.5 563 L 779.5 563 L 779.5 579 L 734.5 579 Z M 734.5 563 "/>
<path style=" stroke:none;fill-rule:nonzero;fill:rgb(96.078431%,91.372549%,69.411765%);fill-opacity:0.6;" d="M 734.5 563 L 779.5 563 L 779.5 579 L 734.5 579 Z M 734.5 563 "/>
<path style="fill:none;stroke-width:1;stroke-linecap:butt;stroke-linejoin:miter;stroke:rgb(0%,0%,0%);stroke-opacity:1;stroke-miterlimit:10;" d=""/>
<path style="fill:none;stroke-width:1;stroke-linecap:butt;stroke-linejoin:miter;stroke:rgb(0%,0%,0%);stroke-opacity:1;stroke-miterlimit:10;" d="M 949.5 649 L 994.5 649 L 994.5 665 L 949.5 665 Z M 949.5 649 "/>
<path style=" stroke:none;fill-rule:nonzero;fill:rgb(96.078431%,91.372549%,69.411765%);fill-opacity:0.6;" d="M 949.5 649 L 994.5 649 L 994.5 665 L 949.5 665 Z M 949.5 649 "/>
<path style="fill:none;stroke-width:1;stroke-linecap:butt;stroke-linejoin:miter;stroke:rgb(0%,0%,0%);stroke-opacity:1;stroke-miterlimit:10;" d=""/>
<path style="fill:none;stroke-width:1;stroke-linecap:butt;stroke-linejoin:miter;stroke:rgb(0%,0%,0%);stroke-opacity:1;stroke-miterlimit:10;" d="M 949.5 603 L 994.5 603 L 994.5 619 L 949.5 619 Z M 949.5 603 "/>
<path style=" stroke:none;fill-rule:nonzero;fill:rgb(96.078431%,91.372549%,69.411765%);fill-opacity:0.6;" d="M 949.5 603 L 994.5 603 L 994.5 619 L 949.5 619 Z M 949.5 603 "/>
<path style="fill:none;stroke-width:1;stroke-linecap:butt;stroke-linejoin:miter;stroke:rgb(0%,0%,0%);stroke-opacity:1;stroke-miterlimit:10;" d=""/>
<path style="fill:none;stroke-width:1;stroke-linecap:butt;stroke-linejoin:miter;stroke:rgb(0%,0%,0%);stroke-opacity:1;stroke-miterlimit:10;" d="M 865.5 323 L 910.5 323 L 910.5 339 L 865.5 339 Z M 865.5 323 "/>
<path style=" stroke:none;fill-rule:nonzero;fill:rgb(96.078431%,91.372549%,69.411765%);fill-opacity:0.6;" d="M 865.5 323 L 910.5 323 L 910.5 339 L 865.5 339 Z M 865.5 323 "/>
<path style="fill:none;stroke-width:1;stroke-linecap:butt;stroke-linejoin:miter;stroke:rgb(0%,0%,0%);stroke-opacity:1;stroke-miterlimit:10;" d=""/>
<path style="fill:none;stroke-width:1;stroke-linecap:butt;stroke-linejoin:miter;stroke:rgb(0%,0%,0%);stroke-opacity:1;stroke-miterlimit:10;" d="M 812.5 323 L 857.5 323 L 857.5 339 L 812.5 339 Z M 812.5 323 "/>
<path style=" stroke:none;fill-rule:nonzero;fill:rgb(96.078431%,91.372549%,69.411765%);fill-opacity:0.6;" d="M 812.5 323 L 857.5 323 L 857.5 339 L 812.5 339 Z M 812.5 323 "/>
<path style="fill:none;stroke-width:1;stroke-linecap:butt;stroke-linejoin:miter;stroke:rgb(0%,0%,0%);stroke-opacity:1;stroke-miterlimit:10;" d=""/>
<path style="fill:none;stroke-width:1;stroke-linecap:butt;stroke-linejoin:miter;stroke:rgb(0%,0%,0%);stroke-opacity:1;stroke-miterlimit:10;" d="M 592.5 180 L 637.5 180 L 637.5 196 L 592.5 196 Z M 592.5 180 "/>
<path style=" stroke:none;fill-rule:nonzero;fill:rgb(96.078431%,91.372549%,69.411765%);fill-opacity:0.6;" d="M 592.5 180 L 637.5 180 L 637.5 196 L 592.5 196 Z M 592.5 180 "/>
<path style="fill:none;stroke-width:1;stroke-linecap:butt;stroke-linejoin:miter;stroke:rgb(0%,0%,0%);stroke-opacity:1;stroke-miterlimit:10;" d=""/>
<path style="fill:none;stroke-width:1;stroke-linecap:butt;stroke-linejoin:miter;stroke:rgb(0%,0%,0%);stroke-opacity:1;stroke-miterlimit:10;" d="M 625.5 302 L 670.5 302 L 670.5 318 L 625.5 318 Z M 625.5 302 "/>
<path style=" stroke:none;fill-rule:nonzero;fill:rgb(96.078431%,91.372549%,69.411765%);fill-opacity:0.6;" d="M 625.5 302 L 670.5 302 L 670.5 318 L 625.5 318 Z M 625.5 302 "/>
<path style="fill:none;stroke-width:1;stroke-linecap:butt;stroke-linejoin:miter;stroke:rgb(0%,0%,0%);stroke-opacity:1;stroke-miterlimit:10;" d=""/>
<path style="fill:none;stroke-width:1;stroke-linecap:butt;stroke-linejoin:miter;stroke:rgb(0%,0%,0%);stroke-opacity:1;stroke-miterlimit:10;" d="M 734.5 212 L 779.5 212 L 779.5 228 L 734.5 228 Z M 734.5 212 "/>
<path style=" stroke:none;fill-rule:nonzero;fill:rgb(96.078431%,91.372549%,69.411765%);fill-opacity:0.6;" d="M 734.5 212 L 779.5 212 L 779.5 228 L 734.5 228 Z M 734.5 212 "/>
<path style="fill:none;stroke-width:1;stroke-linecap:butt;stroke-linejoin:miter;stroke:rgb(0%,0%,0%);stroke-opacity:1;stroke-miterlimit:10;" d=""/>
<path style="fill:none;stroke-width:1;stroke-linecap:butt;stroke-linejoin:miter;stroke:rgb(0%,0%,0%);stroke-opacity:1;stroke-miterlimit:10;" d="M 592.5 420 L 637.5 420 L 637.5 436 L 592.5 436 Z M 592.5 420 "/>
<path style=" stroke:none;fill-rule:nonzero;fill:rgb(96.078431%,91.372549%,69.411765%);fill-opacity:0.6;" d="M 592.5 420 L 637.5 420 L 637.5 436 L 592.5 436 Z M 592.5 420 "/>
<path style="fill:none;stroke-width:1;stroke-linecap:butt;stroke-linejoin:miter;stroke:rgb(0%,0%,0%);stroke-opacity:1;stroke-miterlimit:10;" d=""/>
<path style="fill:none;stroke-width:1;stroke-linecap:butt;stroke-linejoin:miter;stroke:rgb(0%,0%,0%);stroke-opacity:1;stroke-miterlimit:10;" d="M 592.5 229 L 637.5 229 L 637.5 245 L 592.5 245 Z M 592.5 229 "/>
<path style=" stroke:none;fill-rule:nonzero;fill:rgb(96.078431%,91.372549%,69.411765%);fill-opacity:0.6;" d="M 592.5 229 L 637.5 229 L 637.5 245 L 592.5 245 Z M 592.5 229 "/>
<path style="fill:none;stroke-width:1;stroke-linecap:butt;stroke-linejoin:miter;stroke:rgb(0%,0%,0%);stroke-opacity:1;stroke-miterlimit:10;" d=""/>
<path style="fill:none;stroke-width:1;stroke-linecap:butt;stroke-linejoin:miter;stroke:rgb(0%,0%,0%);stroke-opacity:1;stroke-miterlimit:10;" d="M 552.5 721 L 597.5 721 L 597.5 737 L 552.5 737 Z M 552.5 721 "/>
<path style=" stroke:none;fill-rule:nonzero;fill:rgb(96.078431%,91.372549%,69.411765%);fill-opacity:0.6;" d="M 552.5 721 L 597.5 721 L 597.5 737 L 552.5 737 Z M 552.5 721 "/>
<path style="fill:none;stroke-width:1;stroke-linecap:butt;stroke-linejoin:miter;stroke:rgb(0%,0%,0%);stroke-opacity:1;stroke-miterlimit:10;" d=""/>
<path style="fill:none;stroke-width:1;stroke-linecap:butt;stroke-linejoin:miter;stroke:rgb(0%,0%,0%);stroke-opacity:1;stroke-miterlimit:10;" d="M 478.5 541 L 523.5 541 L 523.5 557 L 478.5 557 Z M 478.5 541 "/>
<path style=" stroke:none;fill-rule:nonzero;fill:rgb(96.078431%,91.372549%,69.411765%);fill-opacity:0.6;" d="M 478.5 541 L 523.5 541 L 523.5 557 L 478.5 557 Z M 478.5 541 "/>
<path style="fill:none;stroke-width:1;stroke-linecap:butt;stroke-linejoin:miter;stroke:rgb(0%,0%,0%);stroke-opacity:1;stroke-miterlimit:10;" d=""/>
<path style="fill:none;stroke-width:1;stroke-linecap:butt;stroke-linejoin:miter;stroke:rgb(0%,0%,0%);stroke-opacity:1;stroke-miterlimit:10;" d="M 592.5 87 L 637.5 87 L 637.5 103 L 592.5 103 Z M 592.5 87 "/>
<path style=" stroke:none;fill-rule:nonzero;fill:rgb(96.078431%,91.372549%,69.411765%);fill-opacity:0.6;" d="M 592.5 87 L 637.5 87 L 637.5 103 L 592.5 103 Z M 592.5 87 "/>
<path style="fill:none;stroke-width:1;stroke-linecap:butt;stroke-linejoin:miter;stroke:rgb(0%,0%,0%);stroke-opacity:1;stroke-miterlimit:10;" d=""/>
<path style="fill:none;stroke-width:1;stroke-linecap:butt;stroke-linejoin:miter;stroke:rgb(0%,0%,0%);stroke-opacity:1;stroke-miterlimit:10;" d="M 389.5 622 L 434.5 622 L 434.5 638 L 389.5 638 Z M 389.5 622 "/>
<path style=" stroke:none;fill-rule:nonzero;fill:rgb(96.078431%,91.372549%,69.411765%);fill-opacity:0.6;" d="M 389.5 622 L 434.5 622 L 434.5 638 L 389.5 638 Z M 389.5 622 "/>
<path style="fill:none;stroke-width:1;stroke-linecap:butt;stroke-linejoin:miter;stroke:rgb(0%,0%,0%);stroke-opacity:1;stroke-miterlimit:10;" d=""/>
<path style="fill:none;stroke-width:1;stroke-linecap:butt;stroke-linejoin:miter;stroke:rgb(0%,0%,0%);stroke-opacity:1;stroke-miterlimit:10;" d="M 478.5 509 L 523.5 509 L 523.5 525 L 478.5 525 Z M 478.5 509 "/>
<path style=" stroke:none;fill-rule:nonzero;fill:rgb(96.078431%,91.372549%,69.411765%);fill-opacity:0.6;" d="M 478.5 509 L 523.5 509 L 523.5 525 L 478.5 525 Z M 478.5 509 "/>
<path style="fill:none;stroke-width:1;stroke-linecap:butt;stroke-linejoin:miter;stroke:rgb(0%,0%,0%);stroke-opacity:1;stroke-miterlimit:10;" d=""/>
<path style="fill:none;stroke-width:1;stroke-linecap:butt;stroke-linejoin:miter;stroke:rgb(0%,0%,0%);stroke-opacity:1;stroke-miterlimit:10;" d="M 478.5 437 L 523.5 437 L 523.5 453 L 478.5 453 Z M 478.5 437 "/>
<path style=" stroke:none;fill-rule:nonzero;fill:rgb(96.078431%,91.372549%,69.411765%);fill-opacity:0.6;" d="M 478.5 437 L 523.5 437 L 523.5 453 L 478.5 453 Z M 478.5 437 "/>
<path style="fill:none;stroke-width:1;stroke-linecap:butt;stroke-linejoin:miter;stroke:rgb(0%,0%,0%);stroke-opacity:1;stroke-miterlimit:10;" d=""/>
<path style="fill:none;stroke-width:1;stroke-linecap:butt;stroke-linejoin:miter;stroke:rgb(0%,0%,0%);stroke-opacity:1;stroke-miterlimit:10;" d="M 478.5 404 L 523.5 404 L 523.5 420 L 478.5 420 Z M 478.5 404 "/>
<path style=" stroke:none;fill-rule:nonzero;fill:rgb(96.078431%,91.372549%,69.411765%);fill-opacity:0.6;" d="M 478.5 404 L 523.5 404 L 523.5 420 L 478.5 420 Z M 478.5 404 "/>
<path style="fill:none;stroke-width:1;stroke-linecap:butt;stroke-linejoin:miter;stroke:rgb(0%,0%,0%);stroke-opacity:1;stroke-miterlimit:10;" d=""/>
<path style="fill:none;stroke-width:1;stroke-linecap:butt;stroke-linejoin:miter;stroke:rgb(0%,0%,0%);stroke-opacity:1;stroke-miterlimit:10;" d="M 426.5 369 L 471.5 369 L 471.5 385 L 426.5 385 Z M 426.5 369 "/>
<path style=" stroke:none;fill-rule:nonzero;fill:rgb(96.078431%,91.372549%,69.411765%);fill-opacity:0.6;" d="M 426.5 369 L 471.5 369 L 471.5 385 L 426.5 385 Z M 426.5 369 "/>
<path style="fill:none;stroke-width:1;stroke-linecap:butt;stroke-linejoin:miter;stroke:rgb(0%,0%,0%);stroke-opacity:1;stroke-miterlimit:10;" d=""/>
<path style="fill:none;stroke-width:1;stroke-linecap:butt;stroke-linejoin:miter;stroke:rgb(0%,0%,0%);stroke-opacity:1;stroke-miterlimit:10;" d="M 478.5 291 L 523.5 291 L 523.5 307 L 478.5 307 Z M 478.5 291 "/>
<path style=" stroke:none;fill-rule:nonzero;fill:rgb(96.078431%,91.372549%,69.411765%);fill-opacity:0.6;" d="M 478.5 291 L 523.5 291 L 523.5 307 L 478.5 307 Z M 478.5 291 "/>
<path style="fill:none;stroke-width:1;stroke-linecap:butt;stroke-linejoin:miter;stroke:rgb(0%,0%,0%);stroke-opacity:1;stroke-miterlimit:10;" d=""/>
<path style="fill:none;stroke-width:1;stroke-linecap:butt;stroke-linejoin:miter;stroke:rgb(0%,0%,0%);stroke-opacity:1;stroke-miterlimit:10;" d="M 478.5 229 L 523.5 229 L 523.5 245 L 478.5 245 Z M 478.5 229 "/>
<path style=" stroke:none;fill-rule:nonzero;fill:rgb(96.078431%,91.372549%,69.411765%);fill-opacity:0.6;" d="M 478.5 229 L 523.5 229 L 523.5 245 L 478.5 245 Z M 478.5 229 "/>
<path style="fill:none;stroke-width:1;stroke-linecap:butt;stroke-linejoin:miter;stroke:rgb(0%,0%,0%);stroke-opacity:1;stroke-miterlimit:10;" d=""/>
<path style="fill:none;stroke-width:1;stroke-linecap:butt;stroke-linejoin:miter;stroke:rgb(0%,0%,0%);stroke-opacity:1;stroke-miterlimit:10;" d="M 478.5 180 L 523.5 180 L 523.5 196 L 478.5 196 Z M 478.5 180 "/>
<path style=" stroke:none;fill-rule:nonzero;fill:rgb(96.078431%,91.372549%,69.411765%);fill-opacity:0.6;" d="M 478.5 180 L 523.5 180 L 523.5 196 L 478.5 196 Z M 478.5 180 "/>
<path style="fill:none;stroke-width:1;stroke-linecap:butt;stroke-linejoin:miter;stroke:rgb(0%,0%,0%);stroke-opacity:1;stroke-miterlimit:10;" d=""/>
<path style="fill:none;stroke-width:1;stroke-linecap:butt;stroke-linejoin:miter;stroke:rgb(0%,0%,0%);stroke-opacity:1;stroke-miterlimit:10;" d="M 388.5 755 L 433.5 755 L 433.5 771 L 388.5 771 Z M 388.5 755 "/>
<path style=" stroke:none;fill-rule:nonzero;fill:rgb(96.078431%,91.372549%,69.411765%);fill-opacity:0.6;" d="M 388.5 755 L 433.5 755 L 433.5 771 L 388.5 771 Z M 388.5 755 "/>
<path style="fill:none;stroke-width:1;stroke-linecap:butt;stroke-linejoin:miter;stroke:rgb(0%,0%,0%);stroke-opacity:1;stroke-miterlimit:10;" d=""/>
<path style="fill:none;stroke-width:1;stroke-linecap:butt;stroke-linejoin:miter;stroke:rgb(0%,0%,0%);stroke-opacity:1;stroke-miterlimit:10;" d="M 388.5 589 L 433.5 589 L 433.5 605 L 388.5 605 Z M 388.5 589 "/>
<path style=" stroke:none;fill-rule:nonzero;fill:rgb(96.078431%,91.372549%,69.411765%);fill-opacity:0.6;" d="M 388.5 589 L 433.5 589 L 433.5 605 L 388.5 605 Z M 388.5 589 "/>
<path style="fill:none;stroke-width:1;stroke-linecap:butt;stroke-linejoin:miter;stroke:rgb(0%,0%,0%);stroke-opacity:1;stroke-miterlimit:10;" d=""/>
<path style="fill:none;stroke-width:1;stroke-linecap:butt;stroke-linejoin:miter;stroke:rgb(0%,0%,0%);stroke-opacity:1;stroke-miterlimit:10;" d="M 299.5 466 L 344.5 466 L 344.5 482 L 299.5 482 Z M 299.5 466 "/>
<path style=" stroke:none;fill-rule:nonzero;fill:rgb(96.078431%,91.372549%,69.411765%);fill-opacity:0.6;" d="M 299.5 466 L 344.5 466 L 344.5 482 L 299.5 482 Z M 299.5 466 "/>
<path style="fill:none;stroke-width:1;stroke-linecap:butt;stroke-linejoin:miter;stroke:rgb(0%,0%,0%);stroke-opacity:1;stroke-miterlimit:10;" d=""/>
<path style="fill:none;stroke-width:1;stroke-linecap:butt;stroke-linejoin:miter;stroke:rgb(0%,0%,0%);stroke-opacity:1;stroke-miterlimit:10;" d="M 388.5 509 L 433.5 509 L 433.5 525 L 388.5 525 Z M 388.5 509 "/>
<path style=" stroke:none;fill-rule:nonzero;fill:rgb(96.078431%,91.372549%,69.411765%);fill-opacity:0.6;" d="M 388.5 509 L 433.5 509 L 433.5 525 L 388.5 525 Z M 388.5 509 "/>
<path style="fill:none;stroke-width:1;stroke-linecap:butt;stroke-linejoin:miter;stroke:rgb(0%,0%,0%);stroke-opacity:1;stroke-miterlimit:10;" d=""/>
<path style="fill:none;stroke-width:1;stroke-linecap:butt;stroke-linejoin:miter;stroke:rgb(0%,0%,0%);stroke-opacity:1;stroke-miterlimit:10;" d="M 372.5 385 L 417.5 385 L 417.5 401 L 372.5 401 Z M 372.5 385 "/>
<path style=" stroke:none;fill-rule:nonzero;fill:rgb(96.078431%,91.372549%,69.411765%);fill-opacity:0.6;" d="M 372.5 385 L 417.5 385 L 417.5 401 L 372.5 401 Z M 372.5 385 "/>
<path style="fill:none;stroke-width:1;stroke-linecap:butt;stroke-linejoin:miter;stroke:rgb(0%,0%,0%);stroke-opacity:1;stroke-miterlimit:10;" d=""/>
<path style="fill:none;stroke-width:1;stroke-linecap:butt;stroke-linejoin:miter;stroke:rgb(0%,0%,0%);stroke-opacity:1;stroke-miterlimit:10;" d="M 247.5 589 L 292.5 589 L 292.5 605 L 247.5 605 Z M 247.5 589 "/>
<path style=" stroke:none;fill-rule:nonzero;fill:rgb(96.078431%,91.372549%,69.411765%);fill-opacity:0.6;" d="M 247.5 589 L 292.5 589 L 292.5 605 L 247.5 605 Z M 247.5 589 "/>
<path style="fill:none;stroke-width:1;stroke-linecap:butt;stroke-linejoin:miter;stroke:rgb(0%,0%,0%);stroke-opacity:1;stroke-miterlimit:10;" d=""/>
<path style="fill:none;stroke-width:1;stroke-linecap:butt;stroke-linejoin:miter;stroke:rgb(0%,0%,0%);stroke-opacity:1;stroke-miterlimit:10;" d="M 247.5 389 L 292.5 389 L 292.5 405 L 247.5 405 Z M 247.5 389 "/>
<path style=" stroke:none;fill-rule:nonzero;fill:rgb(96.078431%,91.372549%,69.411765%);fill-opacity:0.6;" d="M 247.5 389 L 292.5 389 L 292.5 405 L 247.5 405 Z M 247.5 389 "/>
<path style="fill:none;stroke-width:1;stroke-linecap:butt;stroke-linejoin:miter;stroke:rgb(0%,0%,0%);stroke-opacity:1;stroke-miterlimit:10;" d=""/>
<path style="fill:none;stroke-width:1;stroke-linecap:butt;stroke-linejoin:miter;stroke:rgb(0%,0%,0%);stroke-opacity:1;stroke-miterlimit:10;" d="M 247.5 372 L 292.5 372 L 292.5 388 L 247.5 388 Z M 247.5 372 "/>
<path style=" stroke:none;fill-rule:nonzero;fill:rgb(96.078431%,91.372549%,69.411765%);fill-opacity:0.6;" d="M 247.5 372 L 292.5 372 L 292.5 388 L 247.5 388 Z M 247.5 372 "/>
<path style="fill:none;stroke-width:1;stroke-linecap:butt;stroke-linejoin:miter;stroke:rgb(0%,0%,0%);stroke-opacity:1;stroke-miterlimit:10;" d=""/>
<path style="fill:none;stroke-width:1;stroke-linecap:butt;stroke-linejoin:miter;stroke:rgb(0%,0%,0%);stroke-opacity:1;stroke-miterlimit:10;" d="M 247.5 229 L 292.5 229 L 292.5 245 L 247.5 245 Z M 247.5 229 "/>
<path style=" stroke:none;fill-rule:nonzero;fill:rgb(96.078431%,91.372549%,69.411765%);fill-opacity:0.6;" d="M 247.5 229 L 292.5 229 L 292.5 245 L 247.5 245 Z M 247.5 229 "/>
<path style="fill:none;stroke-width:1;stroke-linecap:butt;stroke-linejoin:miter;stroke:rgb(0%,0%,0%);stroke-opacity:1;stroke-miterlimit:10;" d=""/>
<path style="fill:none;stroke-width:1;stroke-linecap:butt;stroke-linejoin:miter;stroke:rgb(0%,0%,0%);stroke-opacity:1;stroke-miterlimit:10;" d="M 247.5 212 L 292.5 212 L 292.5 228 L 247.5 228 Z M 247.5 212 "/>
<path style=" stroke:none;fill-rule:nonzero;fill:rgb(96.078431%,91.372549%,69.411765%);fill-opacity:0.6;" d="M 247.5 212 L 292.5 212 L 292.5 228 L 247.5 228 Z M 247.5 212 "/>
<path style="fill:none;stroke-width:1;stroke-linecap:butt;stroke-linejoin:miter;stroke:rgb(0%,0%,0%);stroke-opacity:1;stroke-miterlimit:10;" d=""/>
<path style="fill:none;stroke-width:1;stroke-linecap:butt;stroke-linejoin:miter;stroke:rgb(0%,0%,0%);stroke-opacity:1;stroke-miterlimit:10;" d="M 247.5 289 L 292.5 289 L 292.5 305 L 247.5 305 Z M 247.5 289 "/>
<path style=" stroke:none;fill-rule:nonzero;fill:rgb(96.078431%,91.372549%,69.411765%);fill-opacity:0.6;" d="M 247.5 289 L 292.5 289 L 292.5 305 L 247.5 305 Z M 247.5 289 "/>
<path style="fill:none;stroke-width:1;stroke-linecap:butt;stroke-linejoin:miter;stroke:rgb(0%,0%,0%);stroke-opacity:1;stroke-miterlimit:10;" d=""/>
<path style="fill:none;stroke-width:1;stroke-linecap:butt;stroke-linejoin:miter;stroke:rgb(0%,0%,0%);stroke-opacity:1;stroke-miterlimit:10;" d="M 247.5 272 L 292.5 272 L 292.5 288 L 247.5 288 Z M 247.5 272 "/>
<path style=" stroke:none;fill-rule:nonzero;fill:rgb(96.078431%,91.372549%,69.411765%);fill-opacity:0.6;" d="M 247.5 272 L 292.5 272 L 292.5 288 L 247.5 288 Z M 247.5 272 "/>
<path style="fill:none;stroke-width:1;stroke-linecap:butt;stroke-linejoin:miter;stroke:rgb(0%,0%,0%);stroke-opacity:1;stroke-miterlimit:10;" d=""/>
<path style="fill:none;stroke-width:1;stroke-linecap:butt;stroke-linejoin:miter;stroke:rgb(0%,0%,0%);stroke-opacity:1;stroke-miterlimit:10;" d="M 159.5 661 L 204.5 661 L 204.5 677 L 159.5 677 Z M 159.5 661 "/>
<path style=" stroke:none;fill-rule:nonzero;fill:rgb(96.078431%,91.372549%,69.411765%);fill-opacity:0.6;" d="M 159.5 661 L 204.5 661 L 204.5 677 L 159.5 677 Z M 159.5 661 "/>
<path style="fill:none;stroke-width:1;stroke-linecap:butt;stroke-linejoin:miter;stroke:rgb(0%,0%,0%);stroke-opacity:1;stroke-miterlimit:10;" d=""/>
<path style="fill:none;stroke-width:1;stroke-linecap:butt;stroke-linejoin:miter;stroke:rgb(0%,0%,0%);stroke-opacity:1;stroke-miterlimit:10;" d="M 159.5 571 L 204.5 571 L 204.5 587 L 159.5 587 Z M 159.5 571 "/>
<path style=" stroke:none;fill-rule:nonzero;fill:rgb(96.078431%,91.372549%,69.411765%);fill-opacity:0.6;" d="M 159.5 571 L 204.5 571 L 204.5 587 L 159.5 587 Z M 159.5 571 "/>
<path style="fill:none;stroke-width:1;stroke-linecap:butt;stroke-linejoin:miter;stroke:rgb(0%,0%,0%);stroke-opacity:1;stroke-miterlimit:10;" d=""/>
<path style="fill:none;stroke-width:1;stroke-linecap:butt;stroke-linejoin:miter;stroke:rgb(0%,0%,0%);stroke-opacity:1;stroke-miterlimit:10;" d="M 159.5 350 L 204.5 350 L 204.5 366 L 159.5 366 Z M 159.5 350 "/>
<path style=" stroke:none;fill-rule:nonzero;fill:rgb(96.078431%,91.372549%,69.411765%);fill-opacity:0.6;" d="M 159.5 350 L 204.5 350 L 204.5 366 L 159.5 366 Z M 159.5 350 "/>
<path style="fill:none;stroke-width:1;stroke-linecap:butt;stroke-linejoin:miter;stroke:rgb(0%,0%,0%);stroke-opacity:1;stroke-miterlimit:10;" d=""/>
<path style="fill:none;stroke-width:1;stroke-linecap:butt;stroke-linejoin:miter;stroke:rgb(0%,0%,0%);stroke-opacity:1;stroke-miterlimit:10;" d="M 159.5 232 L 204.5 232 L 204.5 248 L 159.5 248 Z M 159.5 232 "/>
<path style=" stroke:none;fill-rule:nonzero;fill:rgb(96.078431%,91.372549%,69.411765%);fill-opacity:0.6;" d="M 159.5 232 L 204.5 232 L 204.5 248 L 159.5 248 Z M 159.5 232 "/>
<path style="fill:none;stroke-width:1;stroke-linecap:butt;stroke-linejoin:miter;stroke:rgb(0%,0%,0%);stroke-opacity:1;stroke-miterlimit:10;" d=""/>
<path style="fill:none;stroke-width:1;stroke-linecap:butt;stroke-linejoin:miter;stroke:rgb(0%,0%,0%);stroke-opacity:1;stroke-miterlimit:10;" d="M 159.5 172 L 204.5 172 L 204.5 188 L 159.5 188 Z M 159.5 172 "/>
<path style=" stroke:none;fill-rule:nonzero;fill:rgb(96.078431%,91.372549%,69.411765%);fill-opacity:0.6;" d="M 159.5 172 L 204.5 172 L 204.5 188 L 159.5 188 Z M 159.5 172 "/>
<path style="fill:none;stroke-width:1;stroke-linecap:butt;stroke-linejoin:miter;stroke:rgb(0%,0%,0%);stroke-opacity:1;stroke-miterlimit:10;" d=""/>
<path style="fill:none;stroke-width:1;stroke-linecap:butt;stroke-linejoin:miter;stroke:rgb(0%,0%,0%);stroke-opacity:1;stroke-miterlimit:10;" d="M 159.5 145 L 204.5 145 L 204.5 161 L 159.5 161 Z M 159.5 145 "/>
<path style=" stroke:none;fill-rule:nonzero;fill:rgb(96.078431%,91.372549%,69.411765%);fill-opacity:0.6;" d="M 159.5 145 L 204.5 145 L 204.5 161 L 159.5 161 Z M 159.5 145 "/>
<path style="fill:none;stroke-width:1;stroke-linecap:butt;stroke-linejoin:miter;stroke:rgb(0%,0%,0%);stroke-opacity:1;stroke-miterlimit:10;" d=""/>
<path style="fill:none;stroke-width:1;stroke-linecap:butt;stroke-linejoin:miter;stroke:rgb(0%,0%,0%);stroke-opacity:1;stroke-miterlimit:10;" d="M 72.5 623 L 117.5 623 L 117.5 639 L 72.5 639 Z M 72.5 623 "/>
<path style=" stroke:none;fill-rule:nonzero;fill:rgb(96.078431%,91.372549%,69.411765%);fill-opacity:0.6;" d="M 72.5 623 L 117.5 623 L 117.5 639 L 72.5 639 Z M 72.5 623 "/>
<path style="fill:none;stroke-width:1;stroke-linecap:butt;stroke-linejoin:miter;stroke:rgb(0%,0%,0%);stroke-opacity:1;stroke-miterlimit:10;" d=""/>
<path style="fill:none;stroke-width:1;stroke-linecap:butt;stroke-linejoin:miter;stroke:rgb(0%,0%,0%);stroke-opacity:1;stroke-miterlimit:10;" d="M 72.5 571 L 117.5 571 L 117.5 587 L 72.5 587 Z M 72.5 571 "/>
<path style=" stroke:none;fill-rule:nonzero;fill:rgb(96.078431%,91.372549%,69.411765%);fill-opacity:0.6;" d="M 72.5 571 L 117.5 571 L 117.5 587 L 72.5 587 Z M 72.5 571 "/>
<path style="fill:none;stroke-width:1;stroke-linecap:butt;stroke-linejoin:miter;stroke:rgb(0%,0%,0%);stroke-opacity:1;stroke-miterlimit:10;" d=""/>
<path style="fill:none;stroke-width:1;stroke-linecap:butt;stroke-linejoin:miter;stroke:rgb(0%,0%,0%);stroke-opacity:1;stroke-miterlimit:10;" d="M 72.5 350 L 117.5 350 L 117.5 366 L 72.5 366 Z M 72.5 350 "/>
<path style=" stroke:none;fill-rule:nonzero;fill:rgb(96.078431%,91.372549%,69.411765%);fill-opacity:0.6;" d="M 72.5 350 L 117.5 350 L 117.5 366 L 72.5 366 Z M 72.5 350 "/>
<path style="fill:none;stroke-width:1;stroke-linecap:butt;stroke-linejoin:miter;stroke:rgb(0%,0%,0%);stroke-opacity:1;stroke-miterlimit:10;" d=""/>
<path style="fill:none;stroke-width:1;stroke-linecap:butt;stroke-linejoin:miter;stroke:rgb(0%,0%,0%);stroke-opacity:1;stroke-miterlimit:10;" d="M 72.5 233 L 117.5 233 L 117.5 249 L 72.5 249 Z M 72.5 233 "/>
<path style=" stroke:none;fill-rule:nonzero;fill:rgb(96.078431%,91.372549%,69.411765%);fill-opacity:0.6;" d="M 72.5 233 L 117.5 233 L 117.5 249 L 72.5 249 Z M 72.5 233 "/>
<path style="fill:none;stroke-width:1;stroke-linecap:butt;stroke-linejoin:miter;stroke:rgb(0%,0%,0%);stroke-opacity:1;stroke-miterlimit:10;" d=""/>
<path style="fill:none;stroke-width:1;stroke-linecap:butt;stroke-linejoin:miter;stroke:rgb(0%,0%,0%);stroke-opacity:1;stroke-miterlimit:10;" d="M 950.5 749 L 1044.5 749 L 1044.5 787 L 950.5 787 Z M 950.5 749 "/>
<path style=" stroke:none;fill-rule:nonzero;fill:rgb(96.078431%,91.372549%,69.411765%);fill-opacity:0.6;" d="M 950.5 749 L 1044.5 749 L 1044.5 787 L 950.5 787 Z M 950.5 749 "/>
<path style="fill:none;stroke-width:1;stroke-linecap:butt;stroke-linejoin:miter;stroke:rgb(0%,0%,0%);stroke-opacity:1;stroke-miterlimit:10;" d=""/>
<path style="fill:none;stroke-width:1;stroke-linecap:butt;stroke-linejoin:miter;stroke:rgb(0%,0%,0%);stroke-opacity:1;stroke-miterlimit:10;" d="M 72.5 173 L 117.5 173 L 117.5 189 L 72.5 189 Z M 72.5 173 "/>
<path style=" stroke:none;fill-rule:nonzero;fill:rgb(96.078431%,91.372549%,69.411765%);fill-opacity:0.6;" d="M 72.5 173 L 117.5 173 L 117.5 189 L 72.5 189 Z M 72.5 173 "/>
<path style="fill:none;stroke-width:1;stroke-linecap:butt;stroke-linejoin:miter;stroke:rgb(0%,0%,0%);stroke-opacity:1;stroke-miterlimit:10;" d=""/>
<path style="fill:none;stroke-width:1;stroke-linecap:butt;stroke-linejoin:miter;stroke:rgb(0%,0%,0%);stroke-opacity:1;stroke-miterlimit:10;" d="M 72.5 145 L 117.5 145 L 117.5 161 L 72.5 161 Z M 72.5 145 "/>
<path style=" stroke:none;fill-rule:nonzero;fill:rgb(96.078431%,91.372549%,69.411765%);fill-opacity:0.6;" d="M 72.5 145 L 117.5 145 L 117.5 161 L 72.5 161 Z M 72.5 145 "/>
<path style="fill:none;stroke-width:1;stroke-linecap:butt;stroke-linejoin:miter;stroke:rgb(0%,0%,0%);stroke-opacity:1;stroke-miterlimit:10;" d=""/>
<path style="fill:none;stroke-width:1;stroke-linecap:butt;stroke-linejoin:miter;stroke:rgb(0%,0%,0%);stroke-opacity:1;stroke-miterlimit:10;" d="M 247.5 272 L 292.5 272 L 292.5 305 L 247.5 305 Z M 247.5 272 "/>
<path style=" stroke:none;fill-rule:nonzero;fill:rgb(96.078431%,91.372549%,69.411765%);fill-opacity:0.6;" d="M 247.5 272 L 292.5 272 L 292.5 305 L 247.5 305 Z M 247.5 272 "/>
<path style="fill:none;stroke-width:1;stroke-linecap:butt;stroke-linejoin:miter;stroke:rgb(0%,0%,0%);stroke-opacity:1;stroke-miterlimit:10;" d=""/>
</g>
</svg>
