<?xml version="1.0" encoding="UTF-8"?>
<svg xmlns="http://www.w3.org/2000/svg" xmlns:xlink="http://www.w3.org/1999/xlink" width="1387.251759pt" height="2010.788723pt" viewBox="0 0 1387.251759 2010.788723" version="1.1">
<g id="surface11">
<path style="fill:none;stroke-width:1;stroke-linecap:butt;stroke-linejoin:miter;stroke:rgb(0%,0%,100%);stroke-opacity:0.5;stroke-miterlimit:10;" d="M 865.058594 368.964844 L 758.167969 463.402344 "/>
<path style="fill:none;stroke-width:1;stroke-linecap:butt;stroke-linejoin:miter;stroke:rgb(0%,0%,100%);stroke-opacity:0.5;stroke-miterlimit:10;" d="M 713.253906 294.976562 L 654.945312 421.203125 "/>
<path style="fill:none;stroke-width:1;stroke-linecap:butt;stroke-linejoin:miter;stroke:rgb(0%,0%,100%);stroke-opacity:0.5;stroke-miterlimit:10;" d="M 347.003906 115 L 376.773438 241.476562 "/>
<path style="fill:none;stroke-width:1;stroke-linecap:butt;stroke-linejoin:miter;stroke:rgb(0%,0%,100%);stroke-opacity:0.5;stroke-miterlimit:10;" d="M 115 338.65625 L 240.46875 378.160156 "/>
<path style="fill:none;stroke-width:1;stroke-linecap:butt;stroke-linejoin:miter;stroke:rgb(0%,0%,100%);stroke-opacity:0.5;stroke-miterlimit:10;" d="M 470.074219 1813.066406 L 568.839844 1716.660156 "/>
<path style="fill:none;stroke-width:1;stroke-linecap:butt;stroke-linejoin:miter;stroke:rgb(0%,0%,100%);stroke-opacity:0.5;stroke-miterlimit:10;" d="M 701.28125 1895.789062 L 748.125 1767.972656 "/>
<path style="fill:none;stroke-width:1;stroke-linecap:butt;stroke-linejoin:miter;stroke:rgb(0%,0%,100%);stroke-opacity:0.5;stroke-miterlimit:10;" d="M 758.167969 463.402344 L 627.597656 543.050781 "/>
<path style="fill:none;stroke-width:1;stroke-linecap:butt;stroke-linejoin:miter;stroke:rgb(0%,0%,100%);stroke-opacity:0.5;stroke-miterlimit:10;" d="M 654.945312 421.203125 L 627.597656 543.050781 "/>
<path style="fill:none;stroke-width:1;stroke-linecap:butt;stroke-linejoin:miter;stroke:rgb(0%,0%,100%);stroke-opacity:0.5;stroke-miterlimit:10;" d="M 376.773438 241.476562 L 380.371094 380.550781 "/>
<path style="fill:none;stroke-width:1;stroke-linecap:butt;stroke-linejoin:miter;stroke:rgb(0%,0%,100%);stroke-opacity:0.5;stroke-miterlimit:10;" d="M 376.773438 241.476562 L 380.371094 380.550781 "/>
<path style="fill:none;stroke-width:1;stroke-linecap:butt;stroke-linejoin:miter;stroke:rgb(0%,0%,100%);stroke-opacity:0.5;stroke-miterlimit:10;" d="M 240.46875 378.160156 L 380.371094 380.550781 "/>
<path style="fill:none;stroke-width:1;stroke-linecap:butt;stroke-linejoin:miter;stroke:rgb(0%,0%,100%);stroke-opacity:0.5;stroke-miterlimit:10;" d="M 240.46875 378.160156 L 380.371094 380.550781 "/>
<path style="fill:none;stroke-width:1;stroke-linecap:butt;stroke-linejoin:miter;stroke:rgb(0%,0%,100%);stroke-opacity:0.5;stroke-miterlimit:10;" d="M 627.597656 543.050781 L 704.808594 654.015625 "/>
<path style="fill:none;stroke-width:1;stroke-linecap:butt;stroke-linejoin:miter;stroke:rgb(0%,0%,100%);stroke-opacity:0.5;stroke-miterlimit:10;" d="M 627.597656 543.050781 L 620.28125 690.992188 "/>
<path style="fill:none;stroke-width:1;stroke-linecap:butt;stroke-linejoin:miter;stroke:rgb(0%,0%,100%);stroke-opacity:0.5;stroke-miterlimit:10;" d="M 704.808594 654.015625 L 716.761719 788.265625 "/>
<path style="fill:none;stroke-width:1;stroke-linecap:butt;stroke-linejoin:miter;stroke:rgb(0%,0%,100%);stroke-opacity:0.5;stroke-miterlimit:10;" d="M 620.28125 690.992188 L 716.761719 788.265625 "/>
<path style="fill:none;stroke-width:1;stroke-linecap:butt;stroke-linejoin:miter;stroke:rgb(0%,0%,100%);stroke-opacity:0.5;stroke-miterlimit:10;" d="M 620.28125 690.992188 L 683.882812 825.265625 "/>
<path style="fill:none;stroke-width:1;stroke-linecap:butt;stroke-linejoin:miter;stroke:rgb(0%,0%,100%);stroke-opacity:0.5;stroke-miterlimit:10;" d="M 627.597656 543.050781 L 704.808594 654.015625 "/>
<path style="fill:none;stroke-width:1;stroke-linecap:butt;stroke-linejoin:miter;stroke:rgb(0%,0%,100%);stroke-opacity:0.5;stroke-miterlimit:10;" d="M 627.597656 543.050781 L 620.28125 690.992188 "/>
<path style="fill:none;stroke-width:1;stroke-linecap:butt;stroke-linejoin:miter;stroke:rgb(0%,0%,100%);stroke-opacity:0.5;stroke-miterlimit:10;" d="M 383.695312 1341.898438 L 510.386719 1387.992188 "/>
<path style="fill:none;stroke-width:1;stroke-linecap:butt;stroke-linejoin:miter;stroke:rgb(0%,0%,100%);stroke-opacity:0.5;stroke-miterlimit:10;" d="M 368.707031 1431.753906 L 510.386719 1387.992188 "/>
<path style="fill:none;stroke-width:1;stroke-linecap:butt;stroke-linejoin:miter;stroke:rgb(0%,0%,100%);stroke-opacity:0.5;stroke-miterlimit:10;" d="M 627.597656 543.050781 L 704.808594 654.015625 "/>
<path style="fill:none;stroke-width:1;stroke-linecap:butt;stroke-linejoin:miter;stroke:rgb(0%,0%,100%);stroke-opacity:0.5;stroke-miterlimit:10;" d="M 627.597656 543.050781 L 620.28125 690.992188 "/>
<path style="fill:none;stroke-width:1;stroke-linecap:butt;stroke-linejoin:miter;stroke:rgb(0%,0%,100%);stroke-opacity:0.5;stroke-miterlimit:10;" d="M 607.480469 890.578125 L 683.882812 825.265625 "/>
<path style="fill:none;stroke-width:1;stroke-linecap:butt;stroke-linejoin:miter;stroke:rgb(0%,0%,100%);stroke-opacity:0.5;stroke-miterlimit:10;" d="M 607.480469 890.578125 L 716.761719 788.265625 "/>
<path style="fill:none;stroke-width:1;stroke-linecap:butt;stroke-linejoin:miter;stroke:rgb(0%,0%,100%);stroke-opacity:0.5;stroke-miterlimit:10;" d="M 484.101562 839.972656 L 607.480469 890.578125 "/>
<path style="fill:none;stroke-width:1;stroke-linecap:butt;stroke-linejoin:miter;stroke:rgb(0%,0%,100%);stroke-opacity:0.5;stroke-miterlimit:10;" d="M 487.320312 940.976562 L 607.480469 890.578125 "/>
<path style="fill:none;stroke-width:1;stroke-linecap:butt;stroke-linejoin:miter;stroke:rgb(0%,0%,100%);stroke-opacity:0.5;stroke-miterlimit:10;" d="M 716.761719 788.265625 L 806.566406 876.902344 "/>
<path style="fill:none;stroke-width:1;stroke-linecap:butt;stroke-linejoin:miter;stroke:rgb(0%,0%,100%);stroke-opacity:0.5;stroke-miterlimit:10;" d="M 716.761719 788.265625 L 835.429688 758.460938 "/>
<path style="fill:none;stroke-width:1;stroke-linecap:butt;stroke-linejoin:miter;stroke:rgb(0%,0%,100%);stroke-opacity:0.5;stroke-miterlimit:10;" d="M 683.882812 825.265625 L 835.429688 758.460938 "/>
<path style="fill:none;stroke-width:1;stroke-linecap:butt;stroke-linejoin:miter;stroke:rgb(0%,0%,100%);stroke-opacity:0.5;stroke-miterlimit:10;" d="M 510.386719 1387.992188 L 659.3125 1376.800781 "/>
<path style="fill:none;stroke-width:1;stroke-linecap:butt;stroke-linejoin:miter;stroke:rgb(0%,0%,100%);stroke-opacity:0.5;stroke-miterlimit:10;" d="M 659.3125 1376.800781 L 706.101562 1221.554688 "/>
<path style="fill:none;stroke-width:1;stroke-linecap:butt;stroke-linejoin:miter;stroke:rgb(0%,0%,100%);stroke-opacity:0.5;stroke-miterlimit:10;" d="M 736.355469 1496.914062 L 659.3125 1376.800781 "/>
<path style="fill:none;stroke-width:1;stroke-linecap:butt;stroke-linejoin:miter;stroke:rgb(0%,0%,100%);stroke-opacity:0.5;stroke-miterlimit:10;" d="M 736.355469 1496.914062 L 877.054688 1533.839844 "/>
<path style="fill:none;stroke-width:1;stroke-linecap:butt;stroke-linejoin:miter;stroke:rgb(0%,0%,100%);stroke-opacity:0.5;stroke-miterlimit:10;" d="M 964.90625 1637.652344 L 877.054688 1533.839844 "/>
<path style="fill:none;stroke-width:1;stroke-linecap:butt;stroke-linejoin:miter;stroke:rgb(0%,0%,100%);stroke-opacity:0.5;stroke-miterlimit:10;" d="M 1017.074219 1541.078125 L 877.054688 1533.839844 "/>
<path style="fill:none;stroke-width:1;stroke-linecap:butt;stroke-linejoin:miter;stroke:rgb(0%,0%,100%);stroke-opacity:0.5;stroke-miterlimit:10;" d="M 768.671875 1080.28125 L 715.644531 936.527344 "/>
<path style="fill:none;stroke-width:1;stroke-linecap:butt;stroke-linejoin:miter;stroke:rgb(0%,0%,100%);stroke-opacity:0.5;stroke-miterlimit:10;" d="M 768.671875 1080.28125 L 851.574219 1135.125 "/>
<path style="fill:none;stroke-width:1;stroke-linecap:butt;stroke-linejoin:miter;stroke:rgb(0%,0%,100%);stroke-opacity:0.5;stroke-miterlimit:10;" d="M 768.671875 1080.28125 L 934.992188 1079.941406 "/>
<path style="fill:none;stroke-width:1;stroke-linecap:butt;stroke-linejoin:miter;stroke:rgb(0%,0%,100%);stroke-opacity:0.5;stroke-miterlimit:10;" d="M 768.671875 1080.28125 L 706.101562 1221.554688 "/>
<path style="fill:none;stroke-width:1;stroke-linecap:butt;stroke-linejoin:miter;stroke:rgb(0%,0%,100%);stroke-opacity:0.5;stroke-miterlimit:10;" d="M 835.429688 758.460938 L 970.378906 711.960938 "/>
<path style="fill:none;stroke-width:1;stroke-linecap:butt;stroke-linejoin:miter;stroke:rgb(0%,0%,100%);stroke-opacity:0.5;stroke-miterlimit:10;" d="M 568.839844 1716.660156 L 688.570312 1638.3125 "/>
<path style="fill:none;stroke-width:1;stroke-linecap:butt;stroke-linejoin:miter;stroke:rgb(0%,0%,100%);stroke-opacity:0.5;stroke-miterlimit:10;" d="M 748.125 1767.972656 L 688.570312 1638.3125 "/>
<path style="fill:none;stroke-width:1;stroke-linecap:butt;stroke-linejoin:miter;stroke:rgb(0%,0%,100%);stroke-opacity:0.5;stroke-miterlimit:10;" d="M 688.570312 1638.3125 L 736.355469 1496.914062 "/>
<path style="fill:none;stroke-width:1;stroke-linecap:butt;stroke-linejoin:miter;stroke:rgb(0%,0%,100%);stroke-opacity:0.5;stroke-miterlimit:10;" d="M 442.886719 1496.964844 L 510.386719 1387.992188 "/>
<path style="fill:none;stroke-width:1;stroke-linecap:butt;stroke-linejoin:miter;stroke:rgb(0%,0%,100%);stroke-opacity:0.5;stroke-miterlimit:10;" d="M 485.332031 711.125 L 484.101562 839.972656 "/>
<path style="fill:none;stroke-width:1;stroke-linecap:butt;stroke-linejoin:miter;stroke:rgb(0%,0%,100%);stroke-opacity:0.5;stroke-miterlimit:10;" d="M 715.644531 936.527344 L 806.566406 876.902344 "/>
<path style="fill:none;stroke-width:1;stroke-linecap:butt;stroke-linejoin:miter;stroke:rgb(0%,0%,100%);stroke-opacity:0.5;stroke-miterlimit:10;" d="M 715.644531 936.527344 L 716.761719 788.265625 "/>
<path style="fill:none;stroke-width:1;stroke-linecap:butt;stroke-linejoin:miter;stroke:rgb(0%,0%,100%);stroke-opacity:0.5;stroke-miterlimit:10;" d="M 934.992188 1079.941406 L 1078.285156 1084.800781 "/>
<path style="fill:none;stroke-width:1;stroke-linecap:butt;stroke-linejoin:miter;stroke:rgb(0%,0%,100%);stroke-opacity:0.5;stroke-miterlimit:10;" d="M 748.125 1767.972656 L 849.898438 1859.824219 "/>
<path style="fill:none;stroke-width:1;stroke-linecap:butt;stroke-linejoin:miter;stroke:rgb(0%,0%,100%);stroke-opacity:0.5;stroke-miterlimit:10;" d="M 492.207031 470.785156 L 627.597656 543.050781 "/>
<path style="fill:none;stroke-width:1;stroke-linecap:butt;stroke-linejoin:miter;stroke:rgb(0%,0%,100%);stroke-opacity:0.5;stroke-miterlimit:10;" d="M 492.207031 470.785156 L 380.371094 380.550781 "/>
<path style="fill:none;stroke-width:1;stroke-linecap:butt;stroke-linejoin:miter;stroke:rgb(0%,0%,100%);stroke-opacity:0.5;stroke-miterlimit:10;" d="M 1213.003906 1082.183594 L 1078.285156 1084.800781 "/>
<path style="fill:none;stroke-width:1;stroke-linecap:butt;stroke-linejoin:miter;stroke:rgb(0%,0%,100%);stroke-opacity:0.5;stroke-miterlimit:10;" d="M 715.644531 936.527344 L 683.882812 825.265625 "/>
<path style="fill:none;stroke-width:1;stroke-linecap:butt;stroke-linejoin:miter;stroke:rgb(0%,0%,100%);stroke-opacity:0.5;stroke-miterlimit:10;" d="M 715.644531 936.527344 L 607.480469 890.578125 "/>
<path style="fill:none;stroke-width:1;stroke-linecap:butt;stroke-linejoin:miter;stroke:rgb(0%,0%,100%);stroke-opacity:0.5;stroke-miterlimit:10;" d="M 620.28125 690.992188 L 485.332031 711.125 "/>
<path style="fill:none;stroke-width:1;stroke-linecap:butt;stroke-linejoin:miter;stroke:rgb(0%,0%,0%);stroke-opacity:1;stroke-miterlimit:10;" d="M 1215.25 1140.058594 L 1329.25 1140.058594 L 1329.25 1198.058594 L 1215.25 1198.058594 Z M 1215.25 1140.058594 "/>
<path style=" stroke:none;fill-rule:nonzero;fill:rgb(96.078431%,91.372549%,69.411765%);fill-opacity:0.6;" d="M 1215.25 1140.058594 L 1329.25 1140.058594 L 1329.25 1198.058594 L 1215.25 1198.058594 Z M 1215.25 1140.058594 "/>
<path style="fill:none;stroke-width:1;stroke-linecap:butt;stroke-linejoin:miter;stroke:rgb(0%,0%,0%);stroke-opacity:1;stroke-miterlimit:10;" d=""/>
<path style="fill:none;stroke-width:1;stroke-linecap:butt;stroke-linejoin:miter;stroke:rgb(0%,0%,0%);stroke-opacity:1;stroke-miterlimit:10;" d="M 277.25 995.058594 L 420.25 995.058594 L 420.25 1053.058594 L 277.25 1053.058594 Z M 277.25 995.058594 "/>
<path style=" stroke:none;fill-rule:nonzero;fill:rgb(96.078431%,91.372549%,69.411765%);fill-opacity:0.6;" d="M 277.25 995.058594 L 420.25 995.058594 L 420.25 1053.058594 L 277.25 1053.058594 Z M 277.25 995.058594 "/>
<path style="fill:none;stroke-width:1;stroke-linecap:butt;stroke-linejoin:miter;stroke:rgb(0%,0%,0%);stroke-opacity:1;stroke-miterlimit:10;" d=""/>
<path style="fill:none;stroke-width:1;stroke-linecap:butt;stroke-linejoin:miter;stroke:rgb(0%,0%,0%);stroke-opacity:1;stroke-miterlimit:10;" d="M 984.574219 1523.078125 L 1049.574219 1523.078125 L 1049.574219 1559.078125 L 984.574219 1559.078125 Z M 984.574219 1523.078125 "/>
<path style=" stroke:none;fill-rule:nonzero;fill:rgb(96.078431%,91.372549%,69.411765%);fill-opacity:0.6;" d="M 984.574219 1523.078125 L 1049.574219 1523.078125 L 1049.574219 1559.078125 L 984.574219 1559.078125 Z M 984.574219 1523.078125 "/>
<path style="fill:none;stroke-width:1;stroke-linecap:butt;stroke-linejoin:miter;stroke:rgb(0%,0%,0%);stroke-opacity:1;stroke-miterlimit:10;" d=""/>
<path style="fill:none;stroke-width:1;stroke-linecap:butt;stroke-linejoin:miter;stroke:rgb(0%,0%,0%);stroke-opacity:1;stroke-miterlimit:10;" d="M 817.398438 1841.824219 L 882.398438 1841.824219 L 882.398438 1877.824219 L 817.398438 1877.824219 Z M 817.398438 1841.824219 "/>
<path style=" stroke:none;fill-rule:nonzero;fill:rgb(96.078431%,91.372549%,69.411765%);fill-opacity:0.6;" d="M 817.398438 1841.824219 L 882.398438 1841.824219 L 882.398438 1877.824219 L 817.398438 1877.824219 Z M 817.398438 1841.824219 "/>
<path style="fill:none;stroke-width:1;stroke-linecap:butt;stroke-linejoin:miter;stroke:rgb(0%,0%,0%);stroke-opacity:1;stroke-miterlimit:10;" d=""/>
<path style="fill:none;stroke-width:1;stroke-linecap:butt;stroke-linejoin:miter;stroke:rgb(0%,0%,0%);stroke-opacity:1;stroke-miterlimit:10;" d="M 819.074219 1117.125 L 884.074219 1117.125 L 884.074219 1153.125 L 819.074219 1153.125 Z M 819.074219 1117.125 "/>
<path style=" stroke:none;fill-rule:nonzero;fill:rgb(96.078431%,91.372549%,69.411765%);fill-opacity:0.6;" d="M 819.074219 1117.125 L 884.074219 1117.125 L 884.074219 1153.125 L 819.074219 1153.125 Z M 819.074219 1117.125 "/>
<path style="fill:none;stroke-width:1;stroke-linecap:butt;stroke-linejoin:miter;stroke:rgb(0%,0%,0%);stroke-opacity:1;stroke-miterlimit:10;" d=""/>
<path style="fill:none;stroke-width:1;stroke-linecap:butt;stroke-linejoin:miter;stroke:rgb(0%,0%,0%);stroke-opacity:1;stroke-miterlimit:10;" d="M 802.929688 740.460938 L 867.929688 740.460938 L 867.929688 776.460938 L 802.929688 776.460938 Z M 802.929688 740.460938 "/>
<path style=" stroke:none;fill-rule:nonzero;fill:rgb(96.078431%,91.372549%,69.411765%);fill-opacity:0.6;" d="M 802.929688 740.460938 L 867.929688 740.460938 L 867.929688 776.460938 L 802.929688 776.460938 Z M 802.929688 740.460938 "/>
<path style="fill:none;stroke-width:1;stroke-linecap:butt;stroke-linejoin:miter;stroke:rgb(0%,0%,0%);stroke-opacity:1;stroke-miterlimit:10;" d=""/>
<path style="fill:none;stroke-width:1;stroke-linecap:butt;stroke-linejoin:miter;stroke:rgb(0%,0%,0%);stroke-opacity:1;stroke-miterlimit:10;" d="M 902.492188 1061.941406 L 967.492188 1061.941406 L 967.492188 1097.941406 L 902.492188 1097.941406 Z M 902.492188 1061.941406 "/>
<path style=" stroke:none;fill-rule:nonzero;fill:rgb(96.078431%,91.372549%,69.411765%);fill-opacity:0.6;" d="M 902.492188 1061.941406 L 967.492188 1061.941406 L 967.492188 1097.941406 L 902.492188 1097.941406 Z M 902.492188 1061.941406 "/>
<path style="fill:none;stroke-width:1;stroke-linecap:butt;stroke-linejoin:miter;stroke:rgb(0%,0%,0%);stroke-opacity:1;stroke-miterlimit:10;" d=""/>
<path style="fill:none;stroke-width:1;stroke-linecap:butt;stroke-linejoin:miter;stroke:rgb(0%,0%,0%);stroke-opacity:1;stroke-miterlimit:10;" d="M 1180.503906 1064.183594 L 1245.503906 1064.183594 L 1245.503906 1100.183594 L 1180.503906 1100.183594 Z M 1180.503906 1064.183594 "/>
<path style=" stroke:none;fill-rule:nonzero;fill:rgb(96.078431%,91.372549%,69.411765%);fill-opacity:0.6;" d="M 1180.503906 1064.183594 L 1245.503906 1064.183594 L 1245.503906 1100.183594 L 1180.503906 1100.183594 Z M 1180.503906 1064.183594 "/>
<path style="fill:none;stroke-width:1;stroke-linecap:butt;stroke-linejoin:miter;stroke:rgb(0%,0%,0%);stroke-opacity:1;stroke-miterlimit:10;" d=""/>
<path style="fill:none;stroke-width:1;stroke-linecap:butt;stroke-linejoin:miter;stroke:rgb(0%,0%,0%);stroke-opacity:1;stroke-miterlimit:10;" d="M 1045.785156 1066.800781 L 1110.785156 1066.800781 L 1110.785156 1102.800781 L 1045.785156 1102.800781 Z M 1045.785156 1066.800781 "/>
<path style=" stroke:none;fill-rule:nonzero;fill:rgb(96.078431%,91.372549%,69.411765%);fill-opacity:0.6;" d="M 1045.785156 1066.800781 L 1110.785156 1066.800781 L 1110.785156 1102.800781 L 1045.785156 1102.800781 Z M 1045.785156 1066.800781 "/>
<path style="fill:none;stroke-width:1;stroke-linecap:butt;stroke-linejoin:miter;stroke:rgb(0%,0%,0%);stroke-opacity:1;stroke-miterlimit:10;" d=""/>
<path style="fill:none;stroke-width:1;stroke-linecap:butt;stroke-linejoin:miter;stroke:rgb(0%,0%,0%);stroke-opacity:1;stroke-miterlimit:10;" d="M 1079.75 903.058594 L 1144.75 903.058594 L 1144.75 939.058594 L 1079.75 939.058594 Z M 1079.75 903.058594 "/>
<path style=" stroke:none;fill-rule:nonzero;fill:rgb(96.078431%,91.372549%,69.411765%);fill-opacity:0.6;" d="M 1079.75 903.058594 L 1144.75 903.058594 L 1144.75 939.058594 L 1079.75 939.058594 Z M 1079.75 903.058594 "/>
<path style="fill:none;stroke-width:1;stroke-linecap:butt;stroke-linejoin:miter;stroke:rgb(0%,0%,0%);stroke-opacity:1;stroke-miterlimit:10;" d=""/>
<path style="fill:none;stroke-width:1;stroke-linecap:butt;stroke-linejoin:miter;stroke:rgb(0%,0%,0%);stroke-opacity:1;stroke-miterlimit:10;" d="M 1013.75 903.058594 L 1078.75 903.058594 L 1078.75 939.058594 L 1013.75 939.058594 Z M 1013.75 903.058594 "/>
<path style=" stroke:none;fill-rule:nonzero;fill:rgb(96.078431%,91.372549%,69.411765%);fill-opacity:0.6;" d="M 1013.75 903.058594 L 1078.75 903.058594 L 1078.75 939.058594 L 1013.75 939.058594 Z M 1013.75 903.058594 "/>
<path style="fill:none;stroke-width:1;stroke-linecap:butt;stroke-linejoin:miter;stroke:rgb(0%,0%,0%);stroke-opacity:1;stroke-miterlimit:10;" d=""/>
<path style="fill:none;stroke-width:1;stroke-linecap:butt;stroke-linejoin:miter;stroke:rgb(0%,0%,0%);stroke-opacity:1;stroke-miterlimit:10;" d="M 684.261719 770.265625 L 749.261719 770.265625 L 749.261719 806.265625 L 684.261719 806.265625 Z M 684.261719 770.265625 "/>
<path style=" stroke:none;fill-rule:nonzero;fill:rgb(96.078431%,91.372549%,69.411765%);fill-opacity:0.6;" d="M 684.261719 770.265625 L 749.261719 770.265625 L 749.261719 806.265625 L 684.261719 806.265625 Z M 684.261719 770.265625 "/>
<path style="fill:none;stroke-width:1;stroke-linecap:butt;stroke-linejoin:miter;stroke:rgb(0%,0%,0%);stroke-opacity:1;stroke-miterlimit:10;" d=""/>
<path style="fill:none;stroke-width:1;stroke-linecap:butt;stroke-linejoin:miter;stroke:rgb(0%,0%,0%);stroke-opacity:1;stroke-miterlimit:10;" d="M 683.144531 918.527344 L 748.144531 918.527344 L 748.144531 954.527344 L 683.144531 954.527344 Z M 683.144531 918.527344 "/>
<path style=" stroke:none;fill-rule:nonzero;fill:rgb(96.078431%,91.372549%,69.411765%);fill-opacity:0.6;" d="M 683.144531 918.527344 L 748.144531 918.527344 L 748.144531 954.527344 L 683.144531 954.527344 Z M 683.144531 918.527344 "/>
<path style="fill:none;stroke-width:1;stroke-linecap:butt;stroke-linejoin:miter;stroke:rgb(0%,0%,0%);stroke-opacity:1;stroke-miterlimit:10;" d=""/>
<path style="fill:none;stroke-width:1;stroke-linecap:butt;stroke-linejoin:miter;stroke:rgb(0%,0%,0%);stroke-opacity:1;stroke-miterlimit:10;" d="M 937.878906 693.960938 L 1002.878906 693.960938 L 1002.878906 729.960938 L 937.878906 729.960938 Z M 937.878906 693.960938 "/>
<path style=" stroke:none;fill-rule:nonzero;fill:rgb(96.078431%,91.372549%,69.411765%);fill-opacity:0.6;" d="M 937.878906 693.960938 L 1002.878906 693.960938 L 1002.878906 729.960938 L 937.878906 729.960938 Z M 937.878906 693.960938 "/>
<path style="fill:none;stroke-width:1;stroke-linecap:butt;stroke-linejoin:miter;stroke:rgb(0%,0%,0%);stroke-opacity:1;stroke-miterlimit:10;" d=""/>
<path style="fill:none;stroke-width:1;stroke-linecap:butt;stroke-linejoin:miter;stroke:rgb(0%,0%,0%);stroke-opacity:1;stroke-miterlimit:10;" d="M 574.980469 872.578125 L 639.980469 872.578125 L 639.980469 908.578125 L 574.980469 908.578125 Z M 574.980469 872.578125 "/>
<path style=" stroke:none;fill-rule:nonzero;fill:rgb(96.078431%,91.372549%,69.411765%);fill-opacity:0.6;" d="M 574.980469 872.578125 L 639.980469 872.578125 L 639.980469 908.578125 L 574.980469 908.578125 Z M 574.980469 872.578125 "/>
<path style="fill:none;stroke-width:1;stroke-linecap:butt;stroke-linejoin:miter;stroke:rgb(0%,0%,0%);stroke-opacity:1;stroke-miterlimit:10;" d=""/>
<path style="fill:none;stroke-width:1;stroke-linecap:butt;stroke-linejoin:miter;stroke:rgb(0%,0%,0%);stroke-opacity:1;stroke-miterlimit:10;" d="M 651.382812 807.265625 L 716.382812 807.265625 L 716.382812 843.265625 L 651.382812 843.265625 Z M 651.382812 807.265625 "/>
<path style=" stroke:none;fill-rule:nonzero;fill:rgb(96.078431%,91.372549%,69.411765%);fill-opacity:0.6;" d="M 651.382812 807.265625 L 716.382812 807.265625 L 716.382812 843.265625 L 651.382812 843.265625 Z M 651.382812 807.265625 "/>
<path style="fill:none;stroke-width:1;stroke-linecap:butt;stroke-linejoin:miter;stroke:rgb(0%,0%,0%);stroke-opacity:1;stroke-miterlimit:10;" d=""/>
<path style="fill:none;stroke-width:1;stroke-linecap:butt;stroke-linejoin:miter;stroke:rgb(0%,0%,0%);stroke-opacity:1;stroke-miterlimit:10;" d="M 844.554688 1515.839844 L 909.554688 1515.839844 L 909.554688 1551.839844 L 844.554688 1551.839844 Z M 844.554688 1515.839844 "/>
<path style=" stroke:none;fill-rule:nonzero;fill:rgb(96.078431%,91.372549%,69.411765%);fill-opacity:0.6;" d="M 844.554688 1515.839844 L 909.554688 1515.839844 L 909.554688 1551.839844 L 844.554688 1551.839844 Z M 844.554688 1515.839844 "/>
<path style="fill:none;stroke-width:1;stroke-linecap:butt;stroke-linejoin:miter;stroke:rgb(0%,0%,0%);stroke-opacity:1;stroke-miterlimit:10;" d=""/>
<path style="fill:none;stroke-width:1;stroke-linecap:butt;stroke-linejoin:miter;stroke:rgb(0%,0%,0%);stroke-opacity:1;stroke-miterlimit:10;" d="M 736.171875 1062.28125 L 801.171875 1062.28125 L 801.171875 1098.28125 L 736.171875 1098.28125 Z M 736.171875 1062.28125 "/>
<path style=" stroke:none;fill-rule:nonzero;fill:rgb(96.078431%,91.372549%,69.411765%);fill-opacity:0.6;" d="M 736.171875 1062.28125 L 801.171875 1062.28125 L 801.171875 1098.28125 L 736.171875 1098.28125 Z M 736.171875 1062.28125 "/>
<path style="fill:none;stroke-width:1;stroke-linecap:butt;stroke-linejoin:miter;stroke:rgb(0%,0%,0%);stroke-opacity:1;stroke-miterlimit:10;" d=""/>
<path style="fill:none;stroke-width:1;stroke-linecap:butt;stroke-linejoin:miter;stroke:rgb(0%,0%,0%);stroke-opacity:1;stroke-miterlimit:10;" d="M 774.066406 858.902344 L 839.066406 858.902344 L 839.066406 894.902344 L 774.066406 894.902344 Z M 774.066406 858.902344 "/>
<path style=" stroke:none;fill-rule:nonzero;fill:rgb(96.078431%,91.372549%,69.411765%);fill-opacity:0.6;" d="M 774.066406 858.902344 L 839.066406 858.902344 L 839.066406 894.902344 L 774.066406 894.902344 Z M 774.066406 858.902344 "/>
<path style="fill:none;stroke-width:1;stroke-linecap:butt;stroke-linejoin:miter;stroke:rgb(0%,0%,0%);stroke-opacity:1;stroke-miterlimit:10;" d=""/>
<path style="fill:none;stroke-width:1;stroke-linecap:butt;stroke-linejoin:miter;stroke:rgb(0%,0%,0%);stroke-opacity:1;stroke-miterlimit:10;" d="M 932.40625 1619.652344 L 997.40625 1619.652344 L 997.40625 1655.652344 L 932.40625 1655.652344 Z M 932.40625 1619.652344 "/>
<path style=" stroke:none;fill-rule:nonzero;fill:rgb(96.078431%,91.372549%,69.411765%);fill-opacity:0.6;" d="M 932.40625 1619.652344 L 997.40625 1619.652344 L 997.40625 1655.652344 L 932.40625 1655.652344 Z M 932.40625 1619.652344 "/>
<path style="fill:none;stroke-width:1;stroke-linecap:butt;stroke-linejoin:miter;stroke:rgb(0%,0%,0%);stroke-opacity:1;stroke-miterlimit:10;" d=""/>
<path style="fill:none;stroke-width:1;stroke-linecap:butt;stroke-linejoin:miter;stroke:rgb(0%,0%,0%);stroke-opacity:1;stroke-miterlimit:10;" d="M 673.601562 1203.554688 L 738.601562 1203.554688 L 738.601562 1239.554688 L 673.601562 1239.554688 Z M 673.601562 1203.554688 "/>
<path style=" stroke:none;fill-rule:nonzero;fill:rgb(96.078431%,91.372549%,69.411765%);fill-opacity:0.6;" d="M 673.601562 1203.554688 L 738.601562 1203.554688 L 738.601562 1239.554688 L 673.601562 1239.554688 Z M 673.601562 1203.554688 "/>
<path style="fill:none;stroke-width:1;stroke-linecap:butt;stroke-linejoin:miter;stroke:rgb(0%,0%,0%);stroke-opacity:1;stroke-miterlimit:10;" d=""/>
<path style="fill:none;stroke-width:1;stroke-linecap:butt;stroke-linejoin:miter;stroke:rgb(0%,0%,0%);stroke-opacity:1;stroke-miterlimit:10;" d="M 454.820312 922.976562 L 519.820312 922.976562 L 519.820312 958.976562 L 454.820312 958.976562 Z M 454.820312 922.976562 "/>
<path style=" stroke:none;fill-rule:nonzero;fill:rgb(96.078431%,91.372549%,69.411765%);fill-opacity:0.6;" d="M 454.820312 922.976562 L 519.820312 922.976562 L 519.820312 958.976562 L 454.820312 958.976562 Z M 454.820312 922.976562 "/>
<path style="fill:none;stroke-width:1;stroke-linecap:butt;stroke-linejoin:miter;stroke:rgb(0%,0%,0%);stroke-opacity:1;stroke-miterlimit:10;" d=""/>
<path style="fill:none;stroke-width:1;stroke-linecap:butt;stroke-linejoin:miter;stroke:rgb(0%,0%,0%);stroke-opacity:1;stroke-miterlimit:10;" d="M 451.601562 821.972656 L 516.601562 821.972656 L 516.601562 857.972656 L 451.601562 857.972656 Z M 451.601562 821.972656 "/>
<path style=" stroke:none;fill-rule:nonzero;fill:rgb(96.078431%,91.372549%,69.411765%);fill-opacity:0.6;" d="M 451.601562 821.972656 L 516.601562 821.972656 L 516.601562 857.972656 L 451.601562 857.972656 Z M 451.601562 821.972656 "/>
<path style="fill:none;stroke-width:1;stroke-linecap:butt;stroke-linejoin:miter;stroke:rgb(0%,0%,0%);stroke-opacity:1;stroke-miterlimit:10;" d=""/>
<path style="fill:none;stroke-width:1;stroke-linecap:butt;stroke-linejoin:miter;stroke:rgb(0%,0%,0%);stroke-opacity:1;stroke-miterlimit:10;" d="M 634.25 955.527344 L 699.25 955.527344 L 699.25 991.527344 L 634.25 991.527344 Z M 634.25 955.527344 "/>
<path style=" stroke:none;fill-rule:nonzero;fill:rgb(96.078431%,91.372549%,69.411765%);fill-opacity:0.6;" d="M 634.25 955.527344 L 699.25 955.527344 L 699.25 991.527344 L 634.25 991.527344 Z M 634.25 955.527344 "/>
<path style="fill:none;stroke-width:1;stroke-linecap:butt;stroke-linejoin:miter;stroke:rgb(0%,0%,0%);stroke-opacity:1;stroke-miterlimit:10;" d=""/>
<path style="fill:none;stroke-width:1;stroke-linecap:butt;stroke-linejoin:miter;stroke:rgb(0%,0%,0%);stroke-opacity:1;stroke-miterlimit:10;" d="M 452.832031 693.125 L 517.832031 693.125 L 517.832031 729.125 L 452.832031 729.125 Z M 452.832031 693.125 "/>
<path style=" stroke:none;fill-rule:nonzero;fill:rgb(96.078431%,91.372549%,69.411765%);fill-opacity:0.6;" d="M 452.832031 693.125 L 517.832031 693.125 L 517.832031 729.125 L 452.832031 729.125 Z M 452.832031 693.125 "/>
<path style="fill:none;stroke-width:1;stroke-linecap:butt;stroke-linejoin:miter;stroke:rgb(0%,0%,0%);stroke-opacity:1;stroke-miterlimit:10;" d=""/>
<path style="fill:none;stroke-width:1;stroke-linecap:butt;stroke-linejoin:miter;stroke:rgb(0%,0%,0%);stroke-opacity:1;stroke-miterlimit:10;" d="M 587.78125 672.992188 L 652.78125 672.992188 L 652.78125 708.992188 L 587.78125 708.992188 Z M 587.78125 672.992188 "/>
<path style=" stroke:none;fill-rule:nonzero;fill:rgb(96.078431%,91.372549%,69.411765%);fill-opacity:0.6;" d="M 587.78125 672.992188 L 652.78125 672.992188 L 652.78125 708.992188 L 587.78125 708.992188 Z M 587.78125 672.992188 "/>
<path style="fill:none;stroke-width:1;stroke-linecap:butt;stroke-linejoin:miter;stroke:rgb(0%,0%,0%);stroke-opacity:1;stroke-miterlimit:10;" d=""/>
<path style="fill:none;stroke-width:1;stroke-linecap:butt;stroke-linejoin:miter;stroke:rgb(0%,0%,0%);stroke-opacity:1;stroke-miterlimit:10;" d="M 672.308594 636.015625 L 737.308594 636.015625 L 737.308594 672.015625 L 672.308594 672.015625 Z M 672.308594 636.015625 "/>
<path style=" stroke:none;fill-rule:nonzero;fill:rgb(96.078431%,91.372549%,69.411765%);fill-opacity:0.6;" d="M 672.308594 636.015625 L 737.308594 636.015625 L 737.308594 672.015625 L 672.308594 672.015625 Z M 672.308594 636.015625 "/>
<path style="fill:none;stroke-width:1;stroke-linecap:butt;stroke-linejoin:miter;stroke:rgb(0%,0%,0%);stroke-opacity:1;stroke-miterlimit:10;" d=""/>
<path style="fill:none;stroke-width:1;stroke-linecap:butt;stroke-linejoin:miter;stroke:rgb(0%,0%,0%);stroke-opacity:1;stroke-miterlimit:10;" d="M 596.25 1321.800781 L 661.25 1321.800781 L 661.25 1357.800781 L 596.25 1357.800781 Z M 596.25 1321.800781 "/>
<path style=" stroke:none;fill-rule:nonzero;fill:rgb(96.078431%,91.372549%,69.411765%);fill-opacity:0.6;" d="M 596.25 1321.800781 L 661.25 1321.800781 L 661.25 1357.800781 L 596.25 1357.800781 Z M 596.25 1321.800781 "/>
<path style="fill:none;stroke-width:1;stroke-linecap:butt;stroke-linejoin:miter;stroke:rgb(0%,0%,0%);stroke-opacity:1;stroke-miterlimit:10;" d=""/>
<path style="fill:none;stroke-width:1;stroke-linecap:butt;stroke-linejoin:miter;stroke:rgb(0%,0%,0%);stroke-opacity:1;stroke-miterlimit:10;" d="M 703.855469 1478.914062 L 768.855469 1478.914062 L 768.855469 1514.914062 L 703.855469 1514.914062 Z M 703.855469 1478.914062 "/>
<path style=" stroke:none;fill-rule:nonzero;fill:rgb(96.078431%,91.372549%,69.411765%);fill-opacity:0.6;" d="M 703.855469 1478.914062 L 768.855469 1478.914062 L 768.855469 1514.914062 L 703.855469 1514.914062 Z M 703.855469 1478.914062 "/>
<path style="fill:none;stroke-width:1;stroke-linecap:butt;stroke-linejoin:miter;stroke:rgb(0%,0%,0%);stroke-opacity:1;stroke-miterlimit:10;" d=""/>
<path style="fill:none;stroke-width:1;stroke-linecap:butt;stroke-linejoin:miter;stroke:rgb(0%,0%,0%);stroke-opacity:1;stroke-miterlimit:10;" d="M 477.886719 1369.992188 L 542.886719 1369.992188 L 542.886719 1405.992188 L 477.886719 1405.992188 Z M 477.886719 1369.992188 "/>
<path style=" stroke:none;fill-rule:nonzero;fill:rgb(96.078431%,91.372549%,69.411765%);fill-opacity:0.6;" d="M 477.886719 1369.992188 L 542.886719 1369.992188 L 542.886719 1405.992188 L 477.886719 1405.992188 Z M 477.886719 1369.992188 "/>
<path style="fill:none;stroke-width:1;stroke-linecap:butt;stroke-linejoin:miter;stroke:rgb(0%,0%,0%);stroke-opacity:1;stroke-miterlimit:10;" d=""/>
<path style="fill:none;stroke-width:1;stroke-linecap:butt;stroke-linejoin:miter;stroke:rgb(0%,0%,0%);stroke-opacity:1;stroke-miterlimit:10;" d="M 626.8125 1358.800781 L 691.8125 1358.800781 L 691.8125 1394.800781 L 626.8125 1394.800781 Z M 626.8125 1358.800781 "/>
<path style=" stroke:none;fill-rule:nonzero;fill:rgb(96.078431%,91.372549%,69.411765%);fill-opacity:0.6;" d="M 626.8125 1358.800781 L 691.8125 1358.800781 L 691.8125 1394.800781 L 626.8125 1394.800781 Z M 626.8125 1358.800781 "/>
<path style="fill:none;stroke-width:1;stroke-linecap:butt;stroke-linejoin:miter;stroke:rgb(0%,0%,0%);stroke-opacity:1;stroke-miterlimit:10;" d=""/>
<path style="fill:none;stroke-width:1;stroke-linecap:butt;stroke-linejoin:miter;stroke:rgb(0%,0%,0%);stroke-opacity:1;stroke-miterlimit:10;" d="M 459.707031 452.785156 L 524.707031 452.785156 L 524.707031 488.785156 L 459.707031 488.785156 Z M 459.707031 452.785156 "/>
<path style=" stroke:none;fill-rule:nonzero;fill:rgb(96.078431%,91.372549%,69.411765%);fill-opacity:0.6;" d="M 459.707031 452.785156 L 524.707031 452.785156 L 524.707031 488.785156 L 459.707031 488.785156 Z M 459.707031 452.785156 "/>
<path style="fill:none;stroke-width:1;stroke-linecap:butt;stroke-linejoin:miter;stroke:rgb(0%,0%,0%);stroke-opacity:1;stroke-miterlimit:10;" d=""/>
<path style="fill:none;stroke-width:1;stroke-linecap:butt;stroke-linejoin:miter;stroke:rgb(0%,0%,0%);stroke-opacity:1;stroke-miterlimit:10;" d="M 656.070312 1620.3125 L 721.070312 1620.3125 L 721.070312 1656.3125 L 656.070312 1656.3125 Z M 656.070312 1620.3125 "/>
<path style=" stroke:none;fill-rule:nonzero;fill:rgb(96.078431%,91.372549%,69.411765%);fill-opacity:0.6;" d="M 656.070312 1620.3125 L 721.070312 1620.3125 L 721.070312 1656.3125 L 656.070312 1656.3125 Z M 656.070312 1620.3125 "/>
<path style="fill:none;stroke-width:1;stroke-linecap:butt;stroke-linejoin:miter;stroke:rgb(0%,0%,0%);stroke-opacity:1;stroke-miterlimit:10;" d=""/>
<path style="fill:none;stroke-width:1;stroke-linecap:butt;stroke-linejoin:miter;stroke:rgb(0%,0%,0%);stroke-opacity:1;stroke-miterlimit:10;" d="M 410.386719 1478.964844 L 475.386719 1478.964844 L 475.386719 1514.964844 L 410.386719 1514.964844 Z M 410.386719 1478.964844 "/>
<path style=" stroke:none;fill-rule:nonzero;fill:rgb(96.078431%,91.372549%,69.411765%);fill-opacity:0.6;" d="M 410.386719 1478.964844 L 475.386719 1478.964844 L 475.386719 1514.964844 L 410.386719 1514.964844 Z M 410.386719 1478.964844 "/>
<path style="fill:none;stroke-width:1;stroke-linecap:butt;stroke-linejoin:miter;stroke:rgb(0%,0%,0%);stroke-opacity:1;stroke-miterlimit:10;" d=""/>
<path style="fill:none;stroke-width:1;stroke-linecap:butt;stroke-linejoin:miter;stroke:rgb(0%,0%,0%);stroke-opacity:1;stroke-miterlimit:10;" d="M 455.25 959.976562 L 520.25 959.976562 L 520.25 995.976562 L 455.25 995.976562 Z M 455.25 959.976562 "/>
<path style=" stroke:none;fill-rule:nonzero;fill:rgb(96.078431%,91.372549%,69.411765%);fill-opacity:0.6;" d="M 455.25 959.976562 L 520.25 959.976562 L 520.25 995.976562 L 455.25 995.976562 Z M 455.25 959.976562 "/>
<path style="fill:none;stroke-width:1;stroke-linecap:butt;stroke-linejoin:miter;stroke:rgb(0%,0%,0%);stroke-opacity:1;stroke-miterlimit:10;" d=""/>
<path style="fill:none;stroke-width:1;stroke-linecap:butt;stroke-linejoin:miter;stroke:rgb(0%,0%,0%);stroke-opacity:1;stroke-miterlimit:10;" d="M 595.097656 525.050781 L 660.097656 525.050781 L 660.097656 561.050781 L 595.097656 561.050781 Z M 595.097656 525.050781 "/>
<path style=" stroke:none;fill-rule:nonzero;fill:rgb(96.078431%,91.372549%,69.411765%);fill-opacity:0.6;" d="M 595.097656 525.050781 L 660.097656 525.050781 L 660.097656 561.050781 L 595.097656 561.050781 Z M 595.097656 525.050781 "/>
<path style="fill:none;stroke-width:1;stroke-linecap:butt;stroke-linejoin:miter;stroke:rgb(0%,0%,0%);stroke-opacity:1;stroke-miterlimit:10;" d=""/>
<path style="fill:none;stroke-width:1;stroke-linecap:butt;stroke-linejoin:miter;stroke:rgb(0%,0%,0%);stroke-opacity:1;stroke-miterlimit:10;" d="M 455.25 784.972656 L 520.25 784.972656 L 520.25 820.972656 L 455.25 820.972656 Z M 455.25 784.972656 "/>
<path style=" stroke:none;fill-rule:nonzero;fill:rgb(96.078431%,91.372549%,69.411765%);fill-opacity:0.6;" d="M 455.25 784.972656 L 520.25 784.972656 L 520.25 820.972656 L 455.25 820.972656 Z M 455.25 784.972656 "/>
<path style="fill:none;stroke-width:1;stroke-linecap:butt;stroke-linejoin:miter;stroke:rgb(0%,0%,0%);stroke-opacity:1;stroke-miterlimit:10;" d=""/>
<path style="fill:none;stroke-width:1;stroke-linecap:butt;stroke-linejoin:miter;stroke:rgb(0%,0%,0%);stroke-opacity:1;stroke-miterlimit:10;" d="M 336.207031 1413.753906 L 401.207031 1413.753906 L 401.207031 1449.753906 L 336.207031 1449.753906 Z M 336.207031 1413.753906 "/>
<path style=" stroke:none;fill-rule:nonzero;fill:rgb(96.078431%,91.372549%,69.411765%);fill-opacity:0.6;" d="M 336.207031 1413.753906 L 401.207031 1413.753906 L 401.207031 1449.753906 L 336.207031 1449.753906 Z M 336.207031 1413.753906 "/>
<path style="fill:none;stroke-width:1;stroke-linecap:butt;stroke-linejoin:miter;stroke:rgb(0%,0%,0%);stroke-opacity:1;stroke-miterlimit:10;" d=""/>
<path style="fill:none;stroke-width:1;stroke-linecap:butt;stroke-linejoin:miter;stroke:rgb(0%,0%,0%);stroke-opacity:1;stroke-miterlimit:10;" d="M 351.195312 1323.898438 L 416.195312 1323.898438 L 416.195312 1359.898438 L 351.195312 1359.898438 Z M 351.195312 1323.898438 "/>
<path style=" stroke:none;fill-rule:nonzero;fill:rgb(96.078431%,91.372549%,69.411765%);fill-opacity:0.6;" d="M 351.195312 1323.898438 L 416.195312 1323.898438 L 416.195312 1359.898438 L 351.195312 1359.898438 Z M 351.195312 1323.898438 "/>
<path style="fill:none;stroke-width:1;stroke-linecap:butt;stroke-linejoin:miter;stroke:rgb(0%,0%,0%);stroke-opacity:1;stroke-miterlimit:10;" d=""/>
<path style="fill:none;stroke-width:1;stroke-linecap:butt;stroke-linejoin:miter;stroke:rgb(0%,0%,0%);stroke-opacity:1;stroke-miterlimit:10;" d="M 715.625 1749.972656 L 780.625 1749.972656 L 780.625 1785.972656 L 715.625 1785.972656 Z M 715.625 1749.972656 "/>
<path style=" stroke:none;fill-rule:nonzero;fill:rgb(96.078431%,91.372549%,69.411765%);fill-opacity:0.6;" d="M 715.625 1749.972656 L 780.625 1749.972656 L 780.625 1785.972656 L 715.625 1785.972656 Z M 715.625 1749.972656 "/>
<path style="fill:none;stroke-width:1;stroke-linecap:butt;stroke-linejoin:miter;stroke:rgb(0%,0%,0%);stroke-opacity:1;stroke-miterlimit:10;" d=""/>
<path style="fill:none;stroke-width:1;stroke-linecap:butt;stroke-linejoin:miter;stroke:rgb(0%,0%,0%);stroke-opacity:1;stroke-miterlimit:10;" d="M 536.339844 1698.660156 L 601.339844 1698.660156 L 601.339844 1734.660156 L 536.339844 1734.660156 Z M 536.339844 1698.660156 "/>
<path style=" stroke:none;fill-rule:nonzero;fill:rgb(96.078431%,91.372549%,69.411765%);fill-opacity:0.6;" d="M 536.339844 1698.660156 L 601.339844 1698.660156 L 601.339844 1734.660156 L 536.339844 1734.660156 Z M 536.339844 1698.660156 "/>
<path style="fill:none;stroke-width:1;stroke-linecap:butt;stroke-linejoin:miter;stroke:rgb(0%,0%,0%);stroke-opacity:1;stroke-miterlimit:10;" d=""/>
<path style="fill:none;stroke-width:1;stroke-linecap:butt;stroke-linejoin:miter;stroke:rgb(0%,0%,0%);stroke-opacity:1;stroke-miterlimit:10;" d="M 207.96875 360.160156 L 272.96875 360.160156 L 272.96875 396.160156 L 207.96875 396.160156 Z M 207.96875 360.160156 "/>
<path style=" stroke:none;fill-rule:nonzero;fill:rgb(96.078431%,91.372549%,69.411765%);fill-opacity:0.6;" d="M 207.96875 360.160156 L 272.96875 360.160156 L 272.96875 396.160156 L 207.96875 396.160156 Z M 207.96875 360.160156 "/>
<path style="fill:none;stroke-width:1;stroke-linecap:butt;stroke-linejoin:miter;stroke:rgb(0%,0%,0%);stroke-opacity:1;stroke-miterlimit:10;" d=""/>
<path style="fill:none;stroke-width:1;stroke-linecap:butt;stroke-linejoin:miter;stroke:rgb(0%,0%,0%);stroke-opacity:1;stroke-miterlimit:10;" d="M 344.273438 223.476562 L 409.273438 223.476562 L 409.273438 259.476562 L 344.273438 259.476562 Z M 344.273438 223.476562 "/>
<path style=" stroke:none;fill-rule:nonzero;fill:rgb(96.078431%,91.372549%,69.411765%);fill-opacity:0.6;" d="M 344.273438 223.476562 L 409.273438 223.476562 L 409.273438 259.476562 L 344.273438 259.476562 Z M 344.273438 223.476562 "/>
<path style="fill:none;stroke-width:1;stroke-linecap:butt;stroke-linejoin:miter;stroke:rgb(0%,0%,0%);stroke-opacity:1;stroke-miterlimit:10;" d=""/>
<path style="fill:none;stroke-width:1;stroke-linecap:butt;stroke-linejoin:miter;stroke:rgb(0%,0%,0%);stroke-opacity:1;stroke-miterlimit:10;" d="M 622.445312 403.203125 L 687.445312 403.203125 L 687.445312 439.203125 L 622.445312 439.203125 Z M 622.445312 403.203125 "/>
<path style=" stroke:none;fill-rule:nonzero;fill:rgb(96.078431%,91.372549%,69.411765%);fill-opacity:0.6;" d="M 622.445312 403.203125 L 687.445312 403.203125 L 687.445312 439.203125 L 622.445312 439.203125 Z M 622.445312 403.203125 "/>
<path style="fill:none;stroke-width:1;stroke-linecap:butt;stroke-linejoin:miter;stroke:rgb(0%,0%,0%);stroke-opacity:1;stroke-miterlimit:10;" d=""/>
<path style="fill:none;stroke-width:1;stroke-linecap:butt;stroke-linejoin:miter;stroke:rgb(0%,0%,0%);stroke-opacity:1;stroke-miterlimit:10;" d="M 725.667969 445.402344 L 790.667969 445.402344 L 790.667969 481.402344 L 725.667969 481.402344 Z M 725.667969 445.402344 "/>
<path style=" stroke:none;fill-rule:nonzero;fill:rgb(96.078431%,91.372549%,69.411765%);fill-opacity:0.6;" d="M 725.667969 445.402344 L 790.667969 445.402344 L 790.667969 481.402344 L 725.667969 481.402344 Z M 725.667969 445.402344 "/>
<path style="fill:none;stroke-width:1;stroke-linecap:butt;stroke-linejoin:miter;stroke:rgb(0%,0%,0%);stroke-opacity:1;stroke-miterlimit:10;" d=""/>
<path style="fill:none;stroke-width:1;stroke-linecap:butt;stroke-linejoin:miter;stroke:rgb(0%,0%,0%);stroke-opacity:1;stroke-miterlimit:10;" d="M 668.78125 1877.789062 L 733.78125 1877.789062 L 733.78125 1913.789062 L 668.78125 1913.789062 Z M 668.78125 1877.789062 "/>
<path style=" stroke:none;fill-rule:nonzero;fill:rgb(96.078431%,91.372549%,69.411765%);fill-opacity:0.6;" d="M 668.78125 1877.789062 L 733.78125 1877.789062 L 733.78125 1913.789062 L 668.78125 1913.789062 Z M 668.78125 1877.789062 "/>
<path style="fill:none;stroke-width:1;stroke-linecap:butt;stroke-linejoin:miter;stroke:rgb(0%,0%,0%);stroke-opacity:1;stroke-miterlimit:10;" d=""/>
<path style="fill:none;stroke-width:1;stroke-linecap:butt;stroke-linejoin:miter;stroke:rgb(0%,0%,0%);stroke-opacity:1;stroke-miterlimit:10;" d="M 437.574219 1795.066406 L 502.574219 1795.066406 L 502.574219 1831.066406 L 437.574219 1831.066406 Z M 437.574219 1795.066406 "/>
<path style=" stroke:none;fill-rule:nonzero;fill:rgb(96.078431%,91.372549%,69.411765%);fill-opacity:0.6;" d="M 437.574219 1795.066406 L 502.574219 1795.066406 L 502.574219 1831.066406 L 437.574219 1831.066406 Z M 437.574219 1795.066406 "/>
<path style="fill:none;stroke-width:1;stroke-linecap:butt;stroke-linejoin:miter;stroke:rgb(0%,0%,0%);stroke-opacity:1;stroke-miterlimit:10;" d=""/>
<path style="fill:none;stroke-width:1;stroke-linecap:butt;stroke-linejoin:miter;stroke:rgb(0%,0%,0%);stroke-opacity:1;stroke-miterlimit:10;" d="M 82.5 320.65625 L 147.5 320.65625 L 147.5 356.65625 L 82.5 356.65625 Z M 82.5 320.65625 "/>
<path style=" stroke:none;fill-rule:nonzero;fill:rgb(96.078431%,91.372549%,69.411765%);fill-opacity:0.6;" d="M 82.5 320.65625 L 147.5 320.65625 L 147.5 356.65625 L 82.5 356.65625 Z M 82.5 320.65625 "/>
<path style="fill:none;stroke-width:1;stroke-linecap:butt;stroke-linejoin:miter;stroke:rgb(0%,0%,0%);stroke-opacity:1;stroke-miterlimit:10;" d=""/>
<path style="fill:none;stroke-width:1;stroke-linecap:butt;stroke-linejoin:miter;stroke:rgb(0%,0%,0%);stroke-opacity:1;stroke-miterlimit:10;" d="M 314.503906 97 L 379.503906 97 L 379.503906 133 L 314.503906 133 Z M 314.503906 97 "/>
<path style=" stroke:none;fill-rule:nonzero;fill:rgb(96.078431%,91.372549%,69.411765%);fill-opacity:0.6;" d="M 314.503906 97 L 379.503906 97 L 379.503906 133 L 314.503906 133 Z M 314.503906 97 "/>
<path style="fill:none;stroke-width:1;stroke-linecap:butt;stroke-linejoin:miter;stroke:rgb(0%,0%,0%);stroke-opacity:1;stroke-miterlimit:10;" d=""/>
<path style="fill:none;stroke-width:1;stroke-linecap:butt;stroke-linejoin:miter;stroke:rgb(0%,0%,0%);stroke-opacity:1;stroke-miterlimit:10;" d="M 1158.25 1329.058594 L 1272.25 1329.058594 L 1272.25 1387.058594 L 1158.25 1387.058594 Z M 1158.25 1329.058594 "/>
<path style=" stroke:none;fill-rule:nonzero;fill:rgb(96.078431%,91.372549%,69.411765%);fill-opacity:0.6;" d="M 1158.25 1329.058594 L 1272.25 1329.058594 L 1272.25 1387.058594 L 1158.25 1387.058594 Z M 1158.25 1329.058594 "/>
<path style="fill:none;stroke-width:1;stroke-linecap:butt;stroke-linejoin:miter;stroke:rgb(0%,0%,0%);stroke-opacity:1;stroke-miterlimit:10;" d=""/>
<path style="fill:none;stroke-width:1;stroke-linecap:butt;stroke-linejoin:miter;stroke:rgb(0%,0%,0%);stroke-opacity:1;stroke-miterlimit:10;" d="M 680.753906 276.976562 L 745.753906 276.976562 L 745.753906 312.976562 L 680.753906 312.976562 Z M 680.753906 276.976562 "/>
<path style=" stroke:none;fill-rule:nonzero;fill:rgb(96.078431%,91.372549%,69.411765%);fill-opacity:0.6;" d="M 680.753906 276.976562 L 745.753906 276.976562 L 745.753906 312.976562 L 680.753906 312.976562 Z M 680.753906 276.976562 "/>
<path style="fill:none;stroke-width:1;stroke-linecap:butt;stroke-linejoin:miter;stroke:rgb(0%,0%,0%);stroke-opacity:1;stroke-miterlimit:10;" d=""/>
<path style="fill:none;stroke-width:1;stroke-linecap:butt;stroke-linejoin:miter;stroke:rgb(0%,0%,0%);stroke-opacity:1;stroke-miterlimit:10;" d="M 832.558594 350.964844 L 897.558594 350.964844 L 897.558594 386.964844 L 832.558594 386.964844 Z M 832.558594 350.964844 "/>
<path style=" stroke:none;fill-rule:nonzero;fill:rgb(96.078431%,91.372549%,69.411765%);fill-opacity:0.6;" d="M 832.558594 350.964844 L 897.558594 350.964844 L 897.558594 386.964844 L 832.558594 386.964844 Z M 832.558594 350.964844 "/>
<path style="fill:none;stroke-width:1;stroke-linecap:butt;stroke-linejoin:miter;stroke:rgb(0%,0%,0%);stroke-opacity:1;stroke-miterlimit:10;" d=""/>
<path style="fill:none;stroke-width:1;stroke-linecap:butt;stroke-linejoin:miter;stroke:rgb(0%,0%,0%);stroke-opacity:1;stroke-miterlimit:10;" d="M 347.871094 354.050781 L 412.871094 354.050781 L 412.871094 407.050781 L 347.871094 407.050781 Z M 347.871094 354.050781 "/>
<path style=" stroke:none;fill-rule:nonzero;fill:rgb(96.078431%,91.372549%,69.411765%);fill-opacity:0.6;" d="M 347.871094 354.050781 L 412.871094 354.050781 L 412.871094 407.050781 L 347.871094 407.050781 Z M 347.871094 354.050781 "/>
<path style="fill:none;stroke-width:1;stroke-linecap:butt;stroke-linejoin:miter;stroke:rgb(0%,0%,0%);stroke-opacity:1;stroke-miterlimit:10;" d=""/>
</g>
</svg>
