<?xml version="1.0" encoding="UTF-8"?>
<svg xmlns="http://www.w3.org/2000/svg" xmlns:xlink="http://www.w3.org/1999/xlink" width="206.404396pt" height="207.27992pt" viewBox="0 0 206.404396 207.27992" version="1.1">
<g id="surface1">
<path style="fill:none;stroke-width:1;stroke-linecap:butt;stroke-linejoin:miter;stroke:rgb(0%,0%,100%);stroke-opacity:0.2;stroke-miterlimit:10;" d="M 120.988281 4 C 136.847656 4 152.707031 4 168.566406 4 "/>
<path style="fill:none;stroke-width:1;stroke-linecap:butt;stroke-linejoin:miter;stroke:rgb(0%,0%,100%);stroke-opacity:0.2;stroke-miterlimit:10;" d="M 168.566406 4 C 179.84375 4 193.945312 4 202.40625 4 "/>
<path style="fill:none;stroke-width:1;stroke-linecap:butt;stroke-linejoin:miter;stroke:rgb(0%,0%,100%);stroke-opacity:0.2;stroke-miterlimit:10;" d="M 202.40625 4 C 201.246094 4 199.621094 4 197.765625 4 "/>
<path style="fill:none;stroke-width:1;stroke-linecap:butt;stroke-linejoin:miter;stroke:rgb(0%,0%,100%);stroke-opacity:0.2;stroke-miterlimit:10;" d="M 197.765625 4 C 187.835938 4 171.289062 4 158.054688 4 "/>
<path style="fill:none;stroke-width:1;stroke-linecap:butt;stroke-linejoin:miter;stroke:rgb(0%,0%,100%);stroke-opacity:0.2;stroke-miterlimit:10;" d="M 158.054688 4 C 143.066406 4 128.082031 4 113.097656 4 "/>
<path style="fill:none;stroke-width:1;stroke-linecap:butt;stroke-linejoin:miter;stroke:rgb(0%,0%,100%);stroke-opacity:0.2;stroke-miterlimit:10;" d="M 113.097656 4 C 97.800781 4 78.679688 4 67.207031 4 "/>
<path style="fill:none;stroke-width:1;stroke-linecap:butt;stroke-linejoin:miter;stroke:rgb(0%,0%,100%);stroke-opacity:0.2;stroke-miterlimit:10;" d="M 67.207031 4 C 57.03125 4 40.070312 4 26.503906 4 "/>
<path style="fill:none;stroke-width:1;stroke-linecap:butt;stroke-linejoin:miter;stroke:rgb(0%,0%,100%);stroke-opacity:0.2;stroke-miterlimit:10;" d="M 26.503906 4 C 34.808594 16.328125 43.113281 28.65625 51.417969 40.984375 "/>
<path style="fill:none;stroke-width:1;stroke-linecap:butt;stroke-linejoin:miter;stroke:rgb(0%,0%,100%);stroke-opacity:0.2;stroke-miterlimit:10;" d="M 51.417969 40.984375 C 70.421875 50.910156 91.3125 61.003906 108.425781 70.765625 "/>
<path style="fill:none;stroke-width:1;stroke-linecap:butt;stroke-linejoin:miter;stroke:rgb(0%,0%,100%);stroke-opacity:0.2;stroke-miterlimit:10;" d="M 108.425781 70.765625 C 118.808594 77.847656 136.113281 89.65625 149.957031 99.097656 "/>
<path style="fill:none;stroke-width:1;stroke-linecap:butt;stroke-linejoin:miter;stroke:rgb(0%,0%,100%);stroke-opacity:0.2;stroke-miterlimit:10;" d="M 149.957031 99.097656 C 157.253906 112.628906 166.371094 129.539062 171.84375 139.683594 "/>
<path style="fill:none;stroke-width:1;stroke-linecap:butt;stroke-linejoin:miter;stroke:rgb(0%,0%,100%);stroke-opacity:0.2;stroke-miterlimit:10;" d="M 171.84375 139.683594 C 179.484375 145.898438 192.21875 156.257812 202.40625 164.546875 "/>
<path style="fill:none;stroke-width:1;stroke-linecap:butt;stroke-linejoin:miter;stroke:rgb(0%,0%,100%);stroke-opacity:0.2;stroke-miterlimit:10;" d="M 202.40625 164.546875 C 202.40625 177.457031 202.40625 190.367188 202.40625 203.28125 "/>
<path style="fill:none;stroke-width:1;stroke-linecap:butt;stroke-linejoin:miter;stroke:rgb(0%,0%,100%);stroke-opacity:0.2;stroke-miterlimit:10;" d="M 202.40625 203.28125 C 190.273438 203.28125 178.136719 203.28125 166.003906 203.28125 "/>
<path style="fill:none;stroke-width:1;stroke-linecap:butt;stroke-linejoin:miter;stroke:rgb(0%,0%,100%);stroke-opacity:0.2;stroke-miterlimit:10;" d="M 166.003906 203.28125 C 144.304688 203.28125 118.433594 203.28125 100.90625 203.28125 "/>
<path style="fill:none;stroke-width:1;stroke-linecap:butt;stroke-linejoin:miter;stroke:rgb(0%,0%,100%);stroke-opacity:0.2;stroke-miterlimit:10;" d="M 100.90625 203.28125 C 118.433594 203.28125 92.738281 194.878906 105.914062 203.28125 "/>
<path style="fill:none;stroke-width:1;stroke-linecap:butt;stroke-linejoin:miter;stroke:rgb(0%,0%,100%);stroke-opacity:0.2;stroke-miterlimit:10;" d="M 105.914062 203.28125 C 92.738281 194.878906 74.113281 180.875 58.214844 169.675781 "/>
<path style="fill:none;stroke-width:1;stroke-linecap:butt;stroke-linejoin:miter;stroke:rgb(0%,0%,100%);stroke-opacity:0.2;stroke-miterlimit:10;" d="M 58.214844 169.675781 C 50.910156 154.566406 41.78125 135.679688 36.304688 124.347656 "/>
<path style="fill:none;stroke-width:1;stroke-linecap:butt;stroke-linejoin:miter;stroke:rgb(0%,0%,100%);stroke-opacity:0.2;stroke-miterlimit:10;" d="M 36.304688 124.347656 C 41.433594 115.417969 49.980469 100.535156 56.820312 88.625 "/>
<path style="fill:none;stroke-width:1;stroke-linecap:butt;stroke-linejoin:miter;stroke:rgb(0%,0%,100%);stroke-opacity:0.2;stroke-miterlimit:10;" d="M 56.820312 88.625 C 64.503906 76.332031 75.261719 59.125 79.871094 51.75 "/>
<path style="fill:none;stroke-width:1;stroke-linecap:butt;stroke-linejoin:miter;stroke:rgb(0%,0%,100%);stroke-opacity:0.2;stroke-miterlimit:10;" d="M 79.871094 51.75 C 76.121094 38.640625 72.492188 28.578125 70.035156 20.851562 "/>
<path style="fill:none;stroke-width:1;stroke-linecap:butt;stroke-linejoin:miter;stroke:rgb(0%,0%,100%);stroke-opacity:0.2;stroke-miterlimit:10;" d="M 70.035156 20.851562 C 56.371094 28.210938 33.59375 40.476562 15.371094 50.289062 "/>
<path style="fill:none;stroke-width:1;stroke-linecap:butt;stroke-linejoin:miter;stroke:rgb(0%,0%,100%);stroke-opacity:0.2;stroke-miterlimit:10;" d="M 15.371094 50.289062 C 11.582031 66.007812 6.84375 85.65625 4 97.445312 "/>
<path style="fill:none;stroke-width:1;stroke-linecap:butt;stroke-linejoin:miter;stroke:rgb(0%,0%,100%);stroke-opacity:0.2;stroke-miterlimit:10;" d="M 4 97.445312 C 10.460938 111.132812 4 125.132812 4 138.976562 "/>
<path style="fill:none;stroke-width:1;stroke-linecap:butt;stroke-linejoin:miter;stroke:rgb(0%,0%,100%);stroke-opacity:0.2;stroke-miterlimit:10;" d="M 4 138.976562 C 4 152.296875 4 165.617188 4 178.9375 "/>
<path style="fill:none;stroke-width:1;stroke-linecap:butt;stroke-linejoin:miter;stroke:rgb(0%,0%,100%);stroke-opacity:0.2;stroke-miterlimit:10;" d="M 4 178.9375 C 4 187.050781 4 195.164062 4 203.28125 "/>
<path style="fill:none;stroke-width:1;stroke-linecap:butt;stroke-linejoin:miter;stroke:rgb(0%,0%,100%);stroke-opacity:0.2;stroke-miterlimit:10;" d="M 4 203.28125 C 20.152344 203.28125 36.304688 203.28125 52.457031 203.28125 "/>
<path style="fill:none;stroke-width:1;stroke-linecap:butt;stroke-linejoin:miter;stroke:rgb(0%,0%,100%);stroke-opacity:0.2;stroke-miterlimit:10;" d="M 52.457031 203.28125 C 70.550781 203.28125 88.644531 203.28125 106.742188 203.28125 "/>
<path style="fill:none;stroke-width:1;stroke-linecap:butt;stroke-linejoin:miter;stroke:rgb(0%,0%,100%);stroke-opacity:0.2;stroke-miterlimit:10;" d="M 106.742188 203.28125 C 120.269531 196.574219 133.796875 189.867188 147.324219 183.164062 "/>
<path style="fill:none;stroke-width:1;stroke-linecap:butt;stroke-linejoin:miter;stroke:rgb(0%,0%,100%);stroke-opacity:0.2;stroke-miterlimit:10;" d="M 120.988281 4 C 104.003906 9.617188 82.773438 16.640625 70.035156 20.851562 "/>
<path style="fill:none;stroke-width:1;stroke-linecap:butt;stroke-linejoin:miter;stroke:rgb(0%,0%,100%);stroke-opacity:0.2;stroke-miterlimit:10;" d="M 202.40625 4 C 201.246094 4 199.621094 4 197.765625 4 "/>
<path style="fill:none;stroke-width:1;stroke-linecap:butt;stroke-linejoin:miter;stroke:rgb(0%,0%,100%);stroke-opacity:0.2;stroke-miterlimit:10;" d="M 67.207031 4 C 70.371094 15.9375 76.121094 38.640625 79.871094 51.75 "/>
<path style="fill:none;stroke-width:1;stroke-linecap:butt;stroke-linejoin:miter;stroke:rgb(0%,0%,100%);stroke-opacity:0.2;stroke-miterlimit:10;" d="M 108.425781 70.765625 C 91.3125 61.003906 85.582031 55.550781 79.871094 51.75 "/>
<path style="fill:none;stroke-width:1;stroke-linecap:butt;stroke-linejoin:miter;stroke:rgb(0%,0%,100%);stroke-opacity:0.2;stroke-miterlimit:10;" d="M 171.84375 139.683594 C 165.714844 150.554688 155.496094 168.671875 147.324219 183.164062 "/>
<path style="fill:none;stroke-width:1;stroke-linecap:butt;stroke-linejoin:miter;stroke:rgb(0%,0%,100%);stroke-opacity:0.2;stroke-miterlimit:10;" d="M 36.304688 124.347656 C 28.226562 117.625 10.460938 111.132812 4 97.445312 "/>
<path style=" stroke:none;fill-rule:nonzero;fill:rgb(0%,0%,0%);fill-opacity:1;" d="M 122.988281 4 C 122.988281 6.667969 118.988281 6.667969 118.988281 4 C 118.988281 1.332031 122.988281 1.332031 122.988281 4 "/>
<path style=" stroke:none;fill-rule:nonzero;fill:rgb(0%,0%,0%);fill-opacity:1;" d="M 170.566406 4 C 170.566406 6.667969 166.566406 6.667969 166.566406 4 C 166.566406 1.332031 170.566406 1.332031 170.566406 4 "/>
<path style=" stroke:none;fill-rule:nonzero;fill:rgb(0%,0%,0%);fill-opacity:1;" d="M 204.40625 4 C 204.40625 6.667969 200.40625 6.667969 200.40625 4 C 200.40625 1.332031 204.40625 1.332031 204.40625 4 "/>
<path style=" stroke:none;fill-rule:nonzero;fill:rgb(0%,0%,0%);fill-opacity:1;" d="M 199.765625 4 C 199.765625 6.667969 195.765625 6.667969 195.765625 4 C 195.765625 1.332031 199.765625 1.332031 199.765625 4 "/>
<path style=" stroke:none;fill-rule:nonzero;fill:rgb(0%,0%,0%);fill-opacity:1;" d="M 160.054688 4 C 160.054688 6.667969 156.054688 6.667969 156.054688 4 C 156.054688 1.332031 160.054688 1.332031 160.054688 4 "/>
<path style=" stroke:none;fill-rule:nonzero;fill:rgb(0%,0%,0%);fill-opacity:1;" d="M 115.097656 4 C 115.097656 6.667969 111.097656 6.667969 111.097656 4 C 111.097656 1.332031 115.097656 1.332031 115.097656 4 "/>
<path style=" stroke:none;fill-rule:nonzero;fill:rgb(0%,0%,0%);fill-opacity:1;" d="M 69.207031 4 C 69.207031 6.667969 65.207031 6.667969 65.207031 4 C 65.207031 1.332031 69.207031 1.332031 69.207031 4 "/>
<path style=" stroke:none;fill-rule:nonzero;fill:rgb(0%,0%,0%);fill-opacity:1;" d="M 28.503906 4 C 28.503906 6.667969 24.503906 6.667969 24.503906 4 C 24.503906 1.332031 28.503906 1.332031 28.503906 4 "/>
<path style=" stroke:none;fill-rule:nonzero;fill:rgb(0%,0%,0%);fill-opacity:1;" d="M 53.417969 40.984375 C 53.417969 43.652344 49.417969 43.652344 49.417969 40.984375 C 49.417969 38.320312 53.417969 38.320312 53.417969 40.984375 "/>
<path style=" stroke:none;fill-rule:nonzero;fill:rgb(0%,0%,0%);fill-opacity:1;" d="M 110.425781 70.765625 C 110.425781 73.429688 106.425781 73.429688 106.425781 70.765625 C 106.425781 68.097656 110.425781 68.097656 110.425781 70.765625 "/>
<path style=" stroke:none;fill-rule:nonzero;fill:rgb(0%,0%,0%);fill-opacity:1;" d="M 151.957031 99.097656 C 151.957031 101.765625 147.957031 101.765625 147.957031 99.097656 C 147.957031 96.433594 151.957031 96.433594 151.957031 99.097656 "/>
<path style=" stroke:none;fill-rule:nonzero;fill:rgb(0%,0%,0%);fill-opacity:1;" d="M 173.84375 139.683594 C 173.84375 142.351562 169.84375 142.351562 169.84375 139.683594 C 169.84375 137.015625 173.84375 137.015625 173.84375 139.683594 "/>
<path style=" stroke:none;fill-rule:nonzero;fill:rgb(0%,0%,0%);fill-opacity:1;" d="M 204.40625 164.546875 C 204.40625 167.210938 200.40625 167.210938 200.40625 164.546875 C 200.40625 161.878906 204.40625 161.878906 204.40625 164.546875 "/>
<path style=" stroke:none;fill-rule:nonzero;fill:rgb(0%,0%,0%);fill-opacity:1;" d="M 204.40625 203.28125 C 204.40625 205.945312 200.40625 205.945312 200.40625 203.28125 C 200.40625 200.613281 204.40625 200.613281 204.40625 203.28125 "/>
<path style=" stroke:none;fill-rule:nonzero;fill:rgb(0%,0%,0%);fill-opacity:1;" d="M 168.003906 203.28125 C 168.003906 205.945312 164.003906 205.945312 164.003906 203.28125 C 164.003906 200.613281 168.003906 200.613281 168.003906 203.28125 "/>
<path style=" stroke:none;fill-rule:nonzero;fill:rgb(0%,0%,0%);fill-opacity:1;" d="M 102.90625 203.28125 C 102.90625 205.945312 98.90625 205.945312 98.90625 203.28125 C 98.90625 200.613281 102.90625 200.613281 102.90625 203.28125 "/>
<path style=" stroke:none;fill-rule:nonzero;fill:rgb(0%,0%,0%);fill-opacity:1;" d="M 107.914062 203.28125 C 107.914062 205.945312 103.914062 205.945312 103.914062 203.28125 C 103.914062 200.613281 107.914062 200.613281 107.914062 203.28125 "/>
<path style=" stroke:none;fill-rule:nonzero;fill:rgb(0%,0%,0%);fill-opacity:1;" d="M 60.214844 169.675781 C 60.214844 172.34375 56.214844 172.34375 56.214844 169.675781 C 56.214844 167.007812 60.214844 167.007812 60.214844 169.675781 "/>
<path style=" stroke:none;fill-rule:nonzero;fill:rgb(0%,0%,0%);fill-opacity:1;" d="M 38.304688 124.347656 C 38.304688 127.015625 34.304688 127.015625 34.304688 124.347656 C 34.304688 121.683594 38.304688 121.683594 38.304688 124.347656 "/>
<path style=" stroke:none;fill-rule:nonzero;fill:rgb(0%,0%,0%);fill-opacity:1;" d="M 58.820312 88.625 C 58.820312 91.292969 54.820312 91.292969 54.820312 88.625 C 54.820312 85.960938 58.820312 85.960938 58.820312 88.625 "/>
<path style=" stroke:none;fill-rule:nonzero;fill:rgb(0%,0%,0%);fill-opacity:1;" d="M 81.871094 51.75 C 81.871094 54.414062 77.871094 54.414062 77.871094 51.75 C 77.871094 49.082031 81.871094 49.082031 81.871094 51.75 "/>
<path style=" stroke:none;fill-rule:nonzero;fill:rgb(0%,0%,0%);fill-opacity:1;" d="M 72.035156 20.851562 C 72.035156 23.519531 68.035156 23.519531 68.035156 20.851562 C 68.035156 18.1875 72.035156 18.1875 72.035156 20.851562 "/>
<path style=" stroke:none;fill-rule:nonzero;fill:rgb(0%,0%,0%);fill-opacity:1;" d="M 17.371094 50.289062 C 17.371094 52.953125 13.371094 52.953125 13.371094 50.289062 C 13.371094 47.621094 17.371094 47.621094 17.371094 50.289062 "/>
<path style=" stroke:none;fill-rule:nonzero;fill:rgb(0%,0%,0%);fill-opacity:1;" d="M 6 97.445312 C 6 100.113281 2 100.113281 2 97.445312 C 2 94.777344 6 94.777344 6 97.445312 "/>
<path style=" stroke:none;fill-rule:nonzero;fill:rgb(0%,0%,0%);fill-opacity:1;" d="M 6 138.976562 C 6 141.640625 2 141.640625 2 138.976562 C 2 136.308594 6 136.308594 6 138.976562 "/>
<path style=" stroke:none;fill-rule:nonzero;fill:rgb(0%,0%,0%);fill-opacity:1;" d="M 6 178.9375 C 6 181.605469 2 181.605469 2 178.9375 C 2 176.269531 6 176.269531 6 178.9375 "/>
<path style=" stroke:none;fill-rule:nonzero;fill:rgb(0%,0%,0%);fill-opacity:1;" d="M 6 203.28125 C 6 205.945312 2 205.945312 2 203.28125 C 2 200.613281 6 200.613281 6 203.28125 "/>
<path style=" stroke:none;fill-rule:nonzero;fill:rgb(0%,0%,0%);fill-opacity:1;" d="M 54.457031 203.28125 C 54.457031 205.945312 50.457031 205.945312 50.457031 203.28125 C 50.457031 200.613281 54.457031 200.613281 54.457031 203.28125 "/>
<path style=" stroke:none;fill-rule:nonzero;fill:rgb(0%,0%,0%);fill-opacity:1;" d="M 108.742188 203.28125 C 108.742188 205.945312 104.742188 205.945312 104.742188 203.28125 C 104.742188 200.613281 108.742188 200.613281 108.742188 203.28125 "/>
<path style=" stroke:none;fill-rule:nonzero;fill:rgb(0%,0%,0%);fill-opacity:1;" d="M 149.324219 183.164062 C 149.324219 185.832031 145.324219 185.832031 145.324219 183.164062 C 145.324219 180.496094 149.324219 180.496094 149.324219 183.164062 "/>
</g>
</svg>
