<?xml version="1.0" encoding="UTF-8"?>
<svg xmlns="http://www.w3.org/2000/svg" xmlns:xlink="http://www.w3.org/1999/xlink" width="103.960399pt" height="57.80227pt" viewBox="0 0 103.960399 57.80227" version="1.1">
<g id="surface1">
<path style="fill:none;stroke-width:1;stroke-linecap:butt;stroke-linejoin:miter;stroke:rgb(0%,0%,100%);stroke-opacity:0.5;stroke-miterlimit:10;" d="M 99.960938 24.347656 L 49.097656 26.792969 "/>
<path style="fill:none;stroke-width:1;stroke-linecap:butt;stroke-linejoin:miter;stroke:rgb(0%,0%,100%);stroke-opacity:0.5;stroke-miterlimit:10;" d="M 49.097656 26.792969 L 4 4 "/>
<path style="fill:none;stroke-width:1;stroke-linecap:butt;stroke-linejoin:miter;stroke:rgb(0%,0%,100%);stroke-opacity:0.5;stroke-miterlimit:10;" d="M 4 4 L 6.390625 53.800781 "/>
<path style="fill:none;stroke-width:1;stroke-linecap:butt;stroke-linejoin:miter;stroke:rgb(0%,0%,100%);stroke-opacity:0.5;stroke-miterlimit:10;" d="M 49.097656 26.792969 L 6.390625 53.800781 "/>
<path style=" stroke:none;fill-rule:nonzero;fill:rgb(0%,0%,0%);fill-opacity:1;" d="M 101.960938 24.347656 C 101.960938 27.015625 97.960938 27.015625 97.960938 24.347656 C 97.960938 21.683594 101.960938 21.683594 101.960938 24.347656 "/>
<path style=" stroke:none;fill-rule:nonzero;fill:rgb(0%,0%,0%);fill-opacity:1;" d="M 51.097656 26.792969 C 51.097656 29.457031 47.097656 29.457031 47.097656 26.792969 C 47.097656 24.125 51.097656 24.125 51.097656 26.792969 "/>
<path style=" stroke:none;fill-rule:nonzero;fill:rgb(0%,0%,0%);fill-opacity:1;" d="M 6 4 C 6 6.667969 2 6.667969 2 4 C 2 1.332031 6 1.332031 6 4 "/>
<path style=" stroke:none;fill-rule:nonzero;fill:rgb(0%,0%,0%);fill-opacity:1;" d="M 8.390625 53.800781 C 8.390625 56.46875 4.390625 56.46875 4.390625 53.800781 C 4.390625 51.136719 8.390625 51.136719 8.390625 53.800781 "/>
</g>
</svg>
