<?xml version="1.0" encoding="UTF-8"?>
<svg xmlns="http://www.w3.org/2000/svg" xmlns:xlink="http://www.w3.org/1999/xlink" width="1378.355183pt" height="2045.467422pt" viewBox="0 0 1378.355183 2045.467422" version="1.1">
<g id="surface6">
<path style="fill:none;stroke-width:1;stroke-linecap:butt;stroke-linejoin:miter;stroke:rgb(0%,0%,100%);stroke-opacity:0.5;stroke-miterlimit:10;" d="M 874.769531 404.382812 L 763.476562 492.84375 "/>
<path style="fill:none;stroke-width:1;stroke-linecap:butt;stroke-linejoin:miter;stroke:rgb(0%,0%,100%);stroke-opacity:0.5;stroke-miterlimit:10;" d="M 724.648438 321.824219 L 661.535156 445.183594 "/>
<path style="fill:none;stroke-width:1;stroke-linecap:butt;stroke-linejoin:miter;stroke:rgb(0%,0%,100%);stroke-opacity:0.5;stroke-miterlimit:10;" d="M 363.984375 125 L 390.078125 252.21875 "/>
<path style="fill:none;stroke-width:1;stroke-linecap:butt;stroke-linejoin:miter;stroke:rgb(0%,0%,100%);stroke-opacity:0.5;stroke-miterlimit:10;" d="M 125 336.792969 L 248.71875 382.285156 "/>
<path style="fill:none;stroke-width:1;stroke-linecap:butt;stroke-linejoin:miter;stroke:rgb(0%,0%,100%);stroke-opacity:0.5;stroke-miterlimit:10;" d="M 383.40625 1821.949219 L 488.261719 1732.410156 "/>
<path style="fill:none;stroke-width:1;stroke-linecap:butt;stroke-linejoin:miter;stroke:rgb(0%,0%,100%);stroke-opacity:0.5;stroke-miterlimit:10;" d="M 609.085938 1920.46875 L 663.800781 1795.929688 "/>
<path style="fill:none;stroke-width:1;stroke-linecap:butt;stroke-linejoin:miter;stroke:rgb(0%,0%,100%);stroke-opacity:0.5;stroke-miterlimit:10;" d="M 763.476562 492.84375 L 629.136719 565.449219 "/>
<path style="fill:none;stroke-width:1;stroke-linecap:butt;stroke-linejoin:miter;stroke:rgb(0%,0%,100%);stroke-opacity:0.5;stroke-miterlimit:10;" d="M 661.535156 445.183594 L 629.136719 565.449219 "/>
<path style="fill:none;stroke-width:1;stroke-linecap:butt;stroke-linejoin:miter;stroke:rgb(0%,0%,100%);stroke-opacity:0.5;stroke-miterlimit:10;" d="M 390.078125 252.21875 L 388.605469 391.144531 "/>
<path style="fill:none;stroke-width:1;stroke-linecap:butt;stroke-linejoin:miter;stroke:rgb(0%,0%,100%);stroke-opacity:0.5;stroke-miterlimit:10;" d="M 390.078125 252.21875 L 388.605469 391.144531 "/>
<path style="fill:none;stroke-width:1;stroke-linecap:butt;stroke-linejoin:miter;stroke:rgb(0%,0%,100%);stroke-opacity:0.5;stroke-miterlimit:10;" d="M 248.71875 382.285156 L 388.605469 391.144531 "/>
<path style="fill:none;stroke-width:1;stroke-linecap:butt;stroke-linejoin:miter;stroke:rgb(0%,0%,100%);stroke-opacity:0.5;stroke-miterlimit:10;" d="M 248.71875 382.285156 L 388.605469 391.144531 "/>
<path style="fill:none;stroke-width:1;stroke-linecap:butt;stroke-linejoin:miter;stroke:rgb(0%,0%,100%);stroke-opacity:0.5;stroke-miterlimit:10;" d="M 629.136719 565.449219 L 701.222656 680.753906 "/>
<path style="fill:none;stroke-width:1;stroke-linecap:butt;stroke-linejoin:miter;stroke:rgb(0%,0%,100%);stroke-opacity:0.5;stroke-miterlimit:10;" d="M 629.136719 565.449219 L 615.5 712.515625 "/>
<path style="fill:none;stroke-width:1;stroke-linecap:butt;stroke-linejoin:miter;stroke:rgb(0%,0%,100%);stroke-opacity:0.5;stroke-miterlimit:10;" d="M 701.222656 680.753906 L 703.566406 809.984375 "/>
<path style="fill:none;stroke-width:1;stroke-linecap:butt;stroke-linejoin:miter;stroke:rgb(0%,0%,100%);stroke-opacity:0.5;stroke-miterlimit:10;" d="M 615.5 712.515625 L 703.566406 809.984375 "/>
<path style="fill:none;stroke-width:1;stroke-linecap:butt;stroke-linejoin:miter;stroke:rgb(0%,0%,100%);stroke-opacity:0.5;stroke-miterlimit:10;" d="M 615.5 712.515625 L 669.933594 856.984375 "/>
<path style="fill:none;stroke-width:1;stroke-linecap:butt;stroke-linejoin:miter;stroke:rgb(0%,0%,100%);stroke-opacity:0.5;stroke-miterlimit:10;" d="M 629.136719 565.449219 L 701.222656 680.753906 "/>
<path style="fill:none;stroke-width:1;stroke-linecap:butt;stroke-linejoin:miter;stroke:rgb(0%,0%,100%);stroke-opacity:0.5;stroke-miterlimit:10;" d="M 629.136719 565.449219 L 615.5 712.515625 "/>
<path style="fill:none;stroke-width:1;stroke-linecap:butt;stroke-linejoin:miter;stroke:rgb(0%,0%,100%);stroke-opacity:0.5;stroke-miterlimit:10;" d="M 329.984375 1344.730469 L 452.921875 1399.886719 "/>
<path style="fill:none;stroke-width:1;stroke-linecap:butt;stroke-linejoin:miter;stroke:rgb(0%,0%,100%);stroke-opacity:0.5;stroke-miterlimit:10;" d="M 308.597656 1433.355469 L 452.921875 1399.886719 "/>
<path style="fill:none;stroke-width:1;stroke-linecap:butt;stroke-linejoin:miter;stroke:rgb(0%,0%,100%);stroke-opacity:0.5;stroke-miterlimit:10;" d="M 629.136719 565.449219 L 701.222656 680.753906 "/>
<path style="fill:none;stroke-width:1;stroke-linecap:butt;stroke-linejoin:miter;stroke:rgb(0%,0%,100%);stroke-opacity:0.5;stroke-miterlimit:10;" d="M 629.136719 565.449219 L 615.5 712.515625 "/>
<path style="fill:none;stroke-width:1;stroke-linecap:butt;stroke-linejoin:miter;stroke:rgb(0%,0%,100%);stroke-opacity:0.5;stroke-miterlimit:10;" d="M 587.609375 910.265625 L 669.933594 856.984375 "/>
<path style="fill:none;stroke-width:1;stroke-linecap:butt;stroke-linejoin:miter;stroke:rgb(0%,0%,100%);stroke-opacity:0.5;stroke-miterlimit:10;" d="M 587.609375 910.265625 L 703.566406 809.984375 "/>
<path style="fill:none;stroke-width:1;stroke-linecap:butt;stroke-linejoin:miter;stroke:rgb(0%,0%,100%);stroke-opacity:0.5;stroke-miterlimit:10;" d="M 469.234375 843.949219 L 587.609375 910.265625 "/>
<path style="fill:none;stroke-width:1;stroke-linecap:butt;stroke-linejoin:miter;stroke:rgb(0%,0%,100%);stroke-opacity:0.5;stroke-miterlimit:10;" d="M 462.972656 961.492188 L 587.609375 910.265625 "/>
<path style="fill:none;stroke-width:1;stroke-linecap:butt;stroke-linejoin:miter;stroke:rgb(0%,0%,100%);stroke-opacity:0.5;stroke-miterlimit:10;" d="M 703.566406 809.984375 L 786.957031 911.207031 "/>
<path style="fill:none;stroke-width:1;stroke-linecap:butt;stroke-linejoin:miter;stroke:rgb(0%,0%,100%);stroke-opacity:0.5;stroke-miterlimit:10;" d="M 703.566406 809.984375 L 825.007812 794.691406 "/>
<path style="fill:none;stroke-width:1;stroke-linecap:butt;stroke-linejoin:miter;stroke:rgb(0%,0%,100%);stroke-opacity:0.5;stroke-miterlimit:10;" d="M 669.933594 856.984375 L 825.007812 794.691406 "/>
<path style="fill:none;stroke-width:1;stroke-linecap:butt;stroke-linejoin:miter;stroke:rgb(0%,0%,100%);stroke-opacity:0.5;stroke-miterlimit:10;" d="M 452.921875 1399.886719 L 603.15625 1400.105469 "/>
<path style="fill:none;stroke-width:1;stroke-linecap:butt;stroke-linejoin:miter;stroke:rgb(0%,0%,100%);stroke-opacity:0.5;stroke-miterlimit:10;" d="M 603.15625 1400.105469 L 659.890625 1247.730469 "/>
<path style="fill:none;stroke-width:1;stroke-linecap:butt;stroke-linejoin:miter;stroke:rgb(0%,0%,100%);stroke-opacity:0.5;stroke-miterlimit:10;" d="M 670.375 1524.703125 L 603.15625 1400.105469 "/>
<path style="fill:none;stroke-width:1;stroke-linecap:butt;stroke-linejoin:miter;stroke:rgb(0%,0%,100%);stroke-opacity:0.5;stroke-miterlimit:10;" d="M 670.375 1524.703125 L 808.066406 1571.488281 "/>
<path style="fill:none;stroke-width:1;stroke-linecap:butt;stroke-linejoin:miter;stroke:rgb(0%,0%,100%);stroke-opacity:0.5;stroke-miterlimit:10;" d="M 888.457031 1681.203125 L 808.066406 1571.488281 "/>
<path style="fill:none;stroke-width:1;stroke-linecap:butt;stroke-linejoin:miter;stroke:rgb(0%,0%,100%);stroke-opacity:0.5;stroke-miterlimit:10;" d="M 947.246094 1588.644531 L 808.066406 1571.488281 "/>
<path style="fill:none;stroke-width:1;stroke-linecap:butt;stroke-linejoin:miter;stroke:rgb(0%,0%,100%);stroke-opacity:0.5;stroke-miterlimit:10;" d="M 732.996094 1111.457031 L 707.488281 970.527344 "/>
<path style="fill:none;stroke-width:1;stroke-linecap:butt;stroke-linejoin:miter;stroke:rgb(0%,0%,100%);stroke-opacity:0.5;stroke-miterlimit:10;" d="M 732.996094 1111.457031 L 811.171875 1172.472656 "/>
<path style="fill:none;stroke-width:1;stroke-linecap:butt;stroke-linejoin:miter;stroke:rgb(0%,0%,100%);stroke-opacity:0.5;stroke-miterlimit:10;" d="M 732.996094 1111.457031 L 898.875 1123.574219 "/>
<path style="fill:none;stroke-width:1;stroke-linecap:butt;stroke-linejoin:miter;stroke:rgb(0%,0%,100%);stroke-opacity:0.5;stroke-miterlimit:10;" d="M 732.996094 1111.457031 L 659.890625 1247.730469 "/>
<path style="fill:none;stroke-width:1;stroke-linecap:butt;stroke-linejoin:miter;stroke:rgb(0%,0%,100%);stroke-opacity:0.5;stroke-miterlimit:10;" d="M 825.007812 794.691406 L 962.449219 757.070312 "/>
<path style="fill:none;stroke-width:1;stroke-linecap:butt;stroke-linejoin:miter;stroke:rgb(0%,0%,100%);stroke-opacity:0.5;stroke-miterlimit:10;" d="M 488.261719 1732.410156 L 612.996094 1662.492188 "/>
<path style="fill:none;stroke-width:1;stroke-linecap:butt;stroke-linejoin:miter;stroke:rgb(0%,0%,100%);stroke-opacity:0.5;stroke-miterlimit:10;" d="M 663.800781 1795.929688 L 612.996094 1662.492188 "/>
<path style="fill:none;stroke-width:1;stroke-linecap:butt;stroke-linejoin:miter;stroke:rgb(0%,0%,100%);stroke-opacity:0.5;stroke-miterlimit:10;" d="M 612.996094 1662.492188 L 670.375 1524.703125 "/>
<path style="fill:none;stroke-width:1;stroke-linecap:butt;stroke-linejoin:miter;stroke:rgb(0%,0%,100%);stroke-opacity:0.5;stroke-miterlimit:10;" d="M 377.710938 1503.820312 L 452.921875 1399.886719 "/>
<path style="fill:none;stroke-width:1;stroke-linecap:butt;stroke-linejoin:miter;stroke:rgb(0%,0%,100%);stroke-opacity:0.5;stroke-miterlimit:10;" d="M 480.246094 722.976562 L 469.234375 843.949219 "/>
<path style="fill:none;stroke-width:1;stroke-linecap:butt;stroke-linejoin:miter;stroke:rgb(0%,0%,100%);stroke-opacity:0.5;stroke-miterlimit:10;" d="M 707.488281 970.527344 L 786.957031 911.207031 "/>
<path style="fill:none;stroke-width:1;stroke-linecap:butt;stroke-linejoin:miter;stroke:rgb(0%,0%,100%);stroke-opacity:0.5;stroke-miterlimit:10;" d="M 707.488281 970.527344 L 703.566406 809.984375 "/>
<path style="fill:none;stroke-width:1;stroke-linecap:butt;stroke-linejoin:miter;stroke:rgb(0%,0%,100%);stroke-opacity:0.5;stroke-miterlimit:10;" d="M 898.875 1123.574219 L 1041.449219 1138.742188 "/>
<path style="fill:none;stroke-width:1;stroke-linecap:butt;stroke-linejoin:miter;stroke:rgb(0%,0%,100%);stroke-opacity:0.5;stroke-miterlimit:10;" d="M 663.800781 1795.929688 L 759.441406 1894.34375 "/>
<path style="fill:none;stroke-width:1;stroke-linecap:butt;stroke-linejoin:miter;stroke:rgb(0%,0%,100%);stroke-opacity:0.5;stroke-miterlimit:10;" d="M 496.949219 486.125 L 629.136719 565.449219 "/>
<path style="fill:none;stroke-width:1;stroke-linecap:butt;stroke-linejoin:miter;stroke:rgb(0%,0%,100%);stroke-opacity:0.5;stroke-miterlimit:10;" d="M 496.949219 486.125 L 388.605469 391.144531 "/>
<path style="fill:none;stroke-width:1;stroke-linecap:butt;stroke-linejoin:miter;stroke:rgb(0%,0%,100%);stroke-opacity:0.5;stroke-miterlimit:10;" d="M 1176.019531 1135.425781 L 1041.449219 1138.742188 "/>
<path style="fill:none;stroke-width:1;stroke-linecap:butt;stroke-linejoin:miter;stroke:rgb(0%,0%,100%);stroke-opacity:0.5;stroke-miterlimit:10;" d="M 707.488281 970.527344 L 669.933594 856.984375 "/>
<path style="fill:none;stroke-width:1;stroke-linecap:butt;stroke-linejoin:miter;stroke:rgb(0%,0%,100%);stroke-opacity:0.5;stroke-miterlimit:10;" d="M 707.488281 970.527344 L 587.609375 910.265625 "/>
<path style="fill:none;stroke-width:1;stroke-linecap:butt;stroke-linejoin:miter;stroke:rgb(0%,0%,100%);stroke-opacity:0.5;stroke-miterlimit:10;" d="M 615.5 712.515625 L 480.246094 722.976562 "/>
<path style="fill:none;stroke-width:1;stroke-linecap:butt;stroke-linejoin:miter;stroke:rgb(0%,0%,0%);stroke-opacity:1;stroke-miterlimit:10;" d="M 1191.355469 1159.425781 L 1315.355469 1159.425781 L 1315.355469 1227.425781 L 1191.355469 1227.425781 Z M 1191.355469 1159.425781 "/>
<path style=" stroke:none;fill-rule:nonzero;fill:rgb(96.078431%,91.372549%,69.411765%);fill-opacity:0.6;" d="M 1191.355469 1159.425781 L 1315.355469 1159.425781 L 1315.355469 1227.425781 L 1191.355469 1227.425781 Z M 1191.355469 1159.425781 "/>
<path style="fill:none;stroke-width:1;stroke-linecap:butt;stroke-linejoin:miter;stroke:rgb(0%,0%,0%);stroke-opacity:1;stroke-miterlimit:10;" d=""/>
<path style="fill:none;stroke-width:1;stroke-linecap:butt;stroke-linejoin:miter;stroke:rgb(0%,0%,0%);stroke-opacity:1;stroke-miterlimit:10;" d="M 253.355469 1004.097656 L 406.355469 1004.097656 L 406.355469 1072.097656 L 253.355469 1072.097656 Z M 253.355469 1004.097656 "/>
<path style=" stroke:none;fill-rule:nonzero;fill:rgb(96.078431%,91.372549%,69.411765%);fill-opacity:0.6;" d="M 253.355469 1004.097656 L 406.355469 1004.097656 L 406.355469 1072.097656 L 253.355469 1072.097656 Z M 253.355469 1004.097656 "/>
<path style="fill:none;stroke-width:1;stroke-linecap:butt;stroke-linejoin:miter;stroke:rgb(0%,0%,0%);stroke-opacity:1;stroke-miterlimit:10;" d=""/>
<path style="fill:none;stroke-width:1;stroke-linecap:butt;stroke-linejoin:miter;stroke:rgb(0%,0%,0%);stroke-opacity:1;stroke-miterlimit:10;" d="M 909.746094 1565.644531 L 984.746094 1565.644531 L 984.746094 1611.644531 L 909.746094 1611.644531 Z M 909.746094 1565.644531 "/>
<path style=" stroke:none;fill-rule:nonzero;fill:rgb(96.078431%,91.372549%,69.411765%);fill-opacity:0.6;" d="M 909.746094 1565.644531 L 984.746094 1565.644531 L 984.746094 1611.644531 L 909.746094 1611.644531 Z M 909.746094 1565.644531 "/>
<path style="fill:none;stroke-width:1;stroke-linecap:butt;stroke-linejoin:miter;stroke:rgb(0%,0%,0%);stroke-opacity:1;stroke-miterlimit:10;" d=""/>
<path style="fill:none;stroke-width:1;stroke-linecap:butt;stroke-linejoin:miter;stroke:rgb(0%,0%,0%);stroke-opacity:1;stroke-miterlimit:10;" d="M 721.941406 1871.34375 L 796.941406 1871.34375 L 796.941406 1917.34375 L 721.941406 1917.34375 Z M 721.941406 1871.34375 "/>
<path style=" stroke:none;fill-rule:nonzero;fill:rgb(96.078431%,91.372549%,69.411765%);fill-opacity:0.6;" d="M 721.941406 1871.34375 L 796.941406 1871.34375 L 796.941406 1917.34375 L 721.941406 1917.34375 Z M 721.941406 1871.34375 "/>
<path style="fill:none;stroke-width:1;stroke-linecap:butt;stroke-linejoin:miter;stroke:rgb(0%,0%,0%);stroke-opacity:1;stroke-miterlimit:10;" d=""/>
<path style="fill:none;stroke-width:1;stroke-linecap:butt;stroke-linejoin:miter;stroke:rgb(0%,0%,0%);stroke-opacity:1;stroke-miterlimit:10;" d="M 773.671875 1149.472656 L 848.671875 1149.472656 L 848.671875 1195.472656 L 773.671875 1195.472656 Z M 773.671875 1149.472656 "/>
<path style=" stroke:none;fill-rule:nonzero;fill:rgb(96.078431%,91.372549%,69.411765%);fill-opacity:0.6;" d="M 773.671875 1149.472656 L 848.671875 1149.472656 L 848.671875 1195.472656 L 773.671875 1195.472656 Z M 773.671875 1149.472656 "/>
<path style="fill:none;stroke-width:1;stroke-linecap:butt;stroke-linejoin:miter;stroke:rgb(0%,0%,0%);stroke-opacity:1;stroke-miterlimit:10;" d=""/>
<path style="fill:none;stroke-width:1;stroke-linecap:butt;stroke-linejoin:miter;stroke:rgb(0%,0%,0%);stroke-opacity:1;stroke-miterlimit:10;" d="M 787.507812 771.691406 L 862.507812 771.691406 L 862.507812 817.691406 L 787.507812 817.691406 Z M 787.507812 771.691406 "/>
<path style=" stroke:none;fill-rule:nonzero;fill:rgb(96.078431%,91.372549%,69.411765%);fill-opacity:0.6;" d="M 787.507812 771.691406 L 862.507812 771.691406 L 862.507812 817.691406 L 787.507812 817.691406 Z M 787.507812 771.691406 "/>
<path style="fill:none;stroke-width:1;stroke-linecap:butt;stroke-linejoin:miter;stroke:rgb(0%,0%,0%);stroke-opacity:1;stroke-miterlimit:10;" d=""/>
<path style="fill:none;stroke-width:1;stroke-linecap:butt;stroke-linejoin:miter;stroke:rgb(0%,0%,0%);stroke-opacity:1;stroke-miterlimit:10;" d="M 861.375 1100.574219 L 936.375 1100.574219 L 936.375 1146.574219 L 861.375 1146.574219 Z M 861.375 1100.574219 "/>
<path style=" stroke:none;fill-rule:nonzero;fill:rgb(96.078431%,91.372549%,69.411765%);fill-opacity:0.6;" d="M 861.375 1100.574219 L 936.375 1100.574219 L 936.375 1146.574219 L 861.375 1146.574219 Z M 861.375 1100.574219 "/>
<path style="fill:none;stroke-width:1;stroke-linecap:butt;stroke-linejoin:miter;stroke:rgb(0%,0%,0%);stroke-opacity:1;stroke-miterlimit:10;" d=""/>
<path style="fill:none;stroke-width:1;stroke-linecap:butt;stroke-linejoin:miter;stroke:rgb(0%,0%,0%);stroke-opacity:1;stroke-miterlimit:10;" d="M 1138.519531 1112.425781 L 1213.519531 1112.425781 L 1213.519531 1158.425781 L 1138.519531 1158.425781 Z M 1138.519531 1112.425781 "/>
<path style=" stroke:none;fill-rule:nonzero;fill:rgb(96.078431%,91.372549%,69.411765%);fill-opacity:0.6;" d="M 1138.519531 1112.425781 L 1213.519531 1112.425781 L 1213.519531 1158.425781 L 1138.519531 1158.425781 Z M 1138.519531 1112.425781 "/>
<path style="fill:none;stroke-width:1;stroke-linecap:butt;stroke-linejoin:miter;stroke:rgb(0%,0%,0%);stroke-opacity:1;stroke-miterlimit:10;" d=""/>
<path style="fill:none;stroke-width:1;stroke-linecap:butt;stroke-linejoin:miter;stroke:rgb(0%,0%,0%);stroke-opacity:1;stroke-miterlimit:10;" d="M 1003.949219 1115.742188 L 1078.949219 1115.742188 L 1078.949219 1161.742188 L 1003.949219 1161.742188 Z M 1003.949219 1115.742188 "/>
<path style=" stroke:none;fill-rule:nonzero;fill:rgb(96.078431%,91.372549%,69.411765%);fill-opacity:0.6;" d="M 1003.949219 1115.742188 L 1078.949219 1115.742188 L 1078.949219 1161.742188 L 1003.949219 1161.742188 Z M 1003.949219 1115.742188 "/>
<path style="fill:none;stroke-width:1;stroke-linecap:butt;stroke-linejoin:miter;stroke:rgb(0%,0%,0%);stroke-opacity:1;stroke-miterlimit:10;" d=""/>
<path style="fill:none;stroke-width:1;stroke-linecap:butt;stroke-linejoin:miter;stroke:rgb(0%,0%,0%);stroke-opacity:1;stroke-miterlimit:10;" d="M 1060.855469 912.097656 L 1135.855469 912.097656 L 1135.855469 958.097656 L 1060.855469 958.097656 Z M 1060.855469 912.097656 "/>
<path style=" stroke:none;fill-rule:nonzero;fill:rgb(96.078431%,91.372549%,69.411765%);fill-opacity:0.6;" d="M 1060.855469 912.097656 L 1135.855469 912.097656 L 1135.855469 958.097656 L 1060.855469 958.097656 Z M 1060.855469 912.097656 "/>
<path style="fill:none;stroke-width:1;stroke-linecap:butt;stroke-linejoin:miter;stroke:rgb(0%,0%,0%);stroke-opacity:1;stroke-miterlimit:10;" d=""/>
<path style="fill:none;stroke-width:1;stroke-linecap:butt;stroke-linejoin:miter;stroke:rgb(0%,0%,0%);stroke-opacity:1;stroke-miterlimit:10;" d="M 984.855469 912.097656 L 1059.855469 912.097656 L 1059.855469 958.097656 L 984.855469 958.097656 Z M 984.855469 912.097656 "/>
<path style=" stroke:none;fill-rule:nonzero;fill:rgb(96.078431%,91.372549%,69.411765%);fill-opacity:0.6;" d="M 984.855469 912.097656 L 1059.855469 912.097656 L 1059.855469 958.097656 L 984.855469 958.097656 Z M 984.855469 912.097656 "/>
<path style="fill:none;stroke-width:1;stroke-linecap:butt;stroke-linejoin:miter;stroke:rgb(0%,0%,0%);stroke-opacity:1;stroke-miterlimit:10;" d=""/>
<path style="fill:none;stroke-width:1;stroke-linecap:butt;stroke-linejoin:miter;stroke:rgb(0%,0%,0%);stroke-opacity:1;stroke-miterlimit:10;" d="M 666.066406 786.984375 L 741.066406 786.984375 L 741.066406 832.984375 L 666.066406 832.984375 Z M 666.066406 786.984375 "/>
<path style=" stroke:none;fill-rule:nonzero;fill:rgb(96.078431%,91.372549%,69.411765%);fill-opacity:0.6;" d="M 666.066406 786.984375 L 741.066406 786.984375 L 741.066406 832.984375 L 666.066406 832.984375 Z M 666.066406 786.984375 "/>
<path style="fill:none;stroke-width:1;stroke-linecap:butt;stroke-linejoin:miter;stroke:rgb(0%,0%,0%);stroke-opacity:1;stroke-miterlimit:10;" d=""/>
<path style="fill:none;stroke-width:1;stroke-linecap:butt;stroke-linejoin:miter;stroke:rgb(0%,0%,0%);stroke-opacity:1;stroke-miterlimit:10;" d="M 669.988281 947.527344 L 744.988281 947.527344 L 744.988281 993.527344 L 669.988281 993.527344 Z M 669.988281 947.527344 "/>
<path style=" stroke:none;fill-rule:nonzero;fill:rgb(96.078431%,91.372549%,69.411765%);fill-opacity:0.6;" d="M 669.988281 947.527344 L 744.988281 947.527344 L 744.988281 993.527344 L 669.988281 993.527344 Z M 669.988281 947.527344 "/>
<path style="fill:none;stroke-width:1;stroke-linecap:butt;stroke-linejoin:miter;stroke:rgb(0%,0%,0%);stroke-opacity:1;stroke-miterlimit:10;" d=""/>
<path style="fill:none;stroke-width:1;stroke-linecap:butt;stroke-linejoin:miter;stroke:rgb(0%,0%,0%);stroke-opacity:1;stroke-miterlimit:10;" d="M 924.949219 734.070312 L 999.949219 734.070312 L 999.949219 780.070312 L 924.949219 780.070312 Z M 924.949219 734.070312 "/>
<path style=" stroke:none;fill-rule:nonzero;fill:rgb(96.078431%,91.372549%,69.411765%);fill-opacity:0.6;" d="M 924.949219 734.070312 L 999.949219 734.070312 L 999.949219 780.070312 L 924.949219 780.070312 Z M 924.949219 734.070312 "/>
<path style="fill:none;stroke-width:1;stroke-linecap:butt;stroke-linejoin:miter;stroke:rgb(0%,0%,0%);stroke-opacity:1;stroke-miterlimit:10;" d=""/>
<path style="fill:none;stroke-width:1;stroke-linecap:butt;stroke-linejoin:miter;stroke:rgb(0%,0%,0%);stroke-opacity:1;stroke-miterlimit:10;" d="M 550.109375 887.265625 L 625.109375 887.265625 L 625.109375 933.265625 L 550.109375 933.265625 Z M 550.109375 887.265625 "/>
<path style=" stroke:none;fill-rule:nonzero;fill:rgb(96.078431%,91.372549%,69.411765%);fill-opacity:0.6;" d="M 550.109375 887.265625 L 625.109375 887.265625 L 625.109375 933.265625 L 550.109375 933.265625 Z M 550.109375 887.265625 "/>
<path style="fill:none;stroke-width:1;stroke-linecap:butt;stroke-linejoin:miter;stroke:rgb(0%,0%,0%);stroke-opacity:1;stroke-miterlimit:10;" d=""/>
<path style="fill:none;stroke-width:1;stroke-linecap:butt;stroke-linejoin:miter;stroke:rgb(0%,0%,0%);stroke-opacity:1;stroke-miterlimit:10;" d="M 632.433594 833.984375 L 707.433594 833.984375 L 707.433594 879.984375 L 632.433594 879.984375 Z M 632.433594 833.984375 "/>
<path style=" stroke:none;fill-rule:nonzero;fill:rgb(96.078431%,91.372549%,69.411765%);fill-opacity:0.6;" d="M 632.433594 833.984375 L 707.433594 833.984375 L 707.433594 879.984375 L 632.433594 879.984375 Z M 632.433594 833.984375 "/>
<path style="fill:none;stroke-width:1;stroke-linecap:butt;stroke-linejoin:miter;stroke:rgb(0%,0%,0%);stroke-opacity:1;stroke-miterlimit:10;" d=""/>
<path style="fill:none;stroke-width:1;stroke-linecap:butt;stroke-linejoin:miter;stroke:rgb(0%,0%,0%);stroke-opacity:1;stroke-miterlimit:10;" d="M 770.566406 1548.488281 L 845.566406 1548.488281 L 845.566406 1594.488281 L 770.566406 1594.488281 Z M 770.566406 1548.488281 "/>
<path style=" stroke:none;fill-rule:nonzero;fill:rgb(96.078431%,91.372549%,69.411765%);fill-opacity:0.6;" d="M 770.566406 1548.488281 L 845.566406 1548.488281 L 845.566406 1594.488281 L 770.566406 1594.488281 Z M 770.566406 1548.488281 "/>
<path style="fill:none;stroke-width:1;stroke-linecap:butt;stroke-linejoin:miter;stroke:rgb(0%,0%,0%);stroke-opacity:1;stroke-miterlimit:10;" d=""/>
<path style="fill:none;stroke-width:1;stroke-linecap:butt;stroke-linejoin:miter;stroke:rgb(0%,0%,0%);stroke-opacity:1;stroke-miterlimit:10;" d="M 695.496094 1088.457031 L 770.496094 1088.457031 L 770.496094 1134.457031 L 695.496094 1134.457031 Z M 695.496094 1088.457031 "/>
<path style=" stroke:none;fill-rule:nonzero;fill:rgb(96.078431%,91.372549%,69.411765%);fill-opacity:0.6;" d="M 695.496094 1088.457031 L 770.496094 1088.457031 L 770.496094 1134.457031 L 695.496094 1134.457031 Z M 695.496094 1088.457031 "/>
<path style="fill:none;stroke-width:1;stroke-linecap:butt;stroke-linejoin:miter;stroke:rgb(0%,0%,0%);stroke-opacity:1;stroke-miterlimit:10;" d=""/>
<path style="fill:none;stroke-width:1;stroke-linecap:butt;stroke-linejoin:miter;stroke:rgb(0%,0%,0%);stroke-opacity:1;stroke-miterlimit:10;" d="M 749.457031 888.207031 L 824.457031 888.207031 L 824.457031 934.207031 L 749.457031 934.207031 Z M 749.457031 888.207031 "/>
<path style=" stroke:none;fill-rule:nonzero;fill:rgb(96.078431%,91.372549%,69.411765%);fill-opacity:0.6;" d="M 749.457031 888.207031 L 824.457031 888.207031 L 824.457031 934.207031 L 749.457031 934.207031 Z M 749.457031 888.207031 "/>
<path style="fill:none;stroke-width:1;stroke-linecap:butt;stroke-linejoin:miter;stroke:rgb(0%,0%,0%);stroke-opacity:1;stroke-miterlimit:10;" d=""/>
<path style="fill:none;stroke-width:1;stroke-linecap:butt;stroke-linejoin:miter;stroke:rgb(0%,0%,0%);stroke-opacity:1;stroke-miterlimit:10;" d="M 850.957031 1658.203125 L 925.957031 1658.203125 L 925.957031 1704.203125 L 850.957031 1704.203125 Z M 850.957031 1658.203125 "/>
<path style=" stroke:none;fill-rule:nonzero;fill:rgb(96.078431%,91.372549%,69.411765%);fill-opacity:0.6;" d="M 850.957031 1658.203125 L 925.957031 1658.203125 L 925.957031 1704.203125 L 850.957031 1704.203125 Z M 850.957031 1658.203125 "/>
<path style="fill:none;stroke-width:1;stroke-linecap:butt;stroke-linejoin:miter;stroke:rgb(0%,0%,0%);stroke-opacity:1;stroke-miterlimit:10;" d=""/>
<path style="fill:none;stroke-width:1;stroke-linecap:butt;stroke-linejoin:miter;stroke:rgb(0%,0%,0%);stroke-opacity:1;stroke-miterlimit:10;" d="M 622.390625 1224.730469 L 697.390625 1224.730469 L 697.390625 1270.730469 L 622.390625 1270.730469 Z M 622.390625 1224.730469 "/>
<path style=" stroke:none;fill-rule:nonzero;fill:rgb(96.078431%,91.372549%,69.411765%);fill-opacity:0.6;" d="M 622.390625 1224.730469 L 697.390625 1224.730469 L 697.390625 1270.730469 L 622.390625 1270.730469 Z M 622.390625 1224.730469 "/>
<path style="fill:none;stroke-width:1;stroke-linecap:butt;stroke-linejoin:miter;stroke:rgb(0%,0%,0%);stroke-opacity:1;stroke-miterlimit:10;" d=""/>
<path style="fill:none;stroke-width:1;stroke-linecap:butt;stroke-linejoin:miter;stroke:rgb(0%,0%,0%);stroke-opacity:1;stroke-miterlimit:10;" d="M 425.472656 938.492188 L 500.472656 938.492188 L 500.472656 984.492188 L 425.472656 984.492188 Z M 425.472656 938.492188 "/>
<path style=" stroke:none;fill-rule:nonzero;fill:rgb(96.078431%,91.372549%,69.411765%);fill-opacity:0.6;" d="M 425.472656 938.492188 L 500.472656 938.492188 L 500.472656 984.492188 L 425.472656 984.492188 Z M 425.472656 938.492188 "/>
<path style="fill:none;stroke-width:1;stroke-linecap:butt;stroke-linejoin:miter;stroke:rgb(0%,0%,0%);stroke-opacity:1;stroke-miterlimit:10;" d=""/>
<path style="fill:none;stroke-width:1;stroke-linecap:butt;stroke-linejoin:miter;stroke:rgb(0%,0%,0%);stroke-opacity:1;stroke-miterlimit:10;" d="M 431.734375 820.949219 L 506.734375 820.949219 L 506.734375 866.949219 L 431.734375 866.949219 Z M 431.734375 820.949219 "/>
<path style=" stroke:none;fill-rule:nonzero;fill:rgb(96.078431%,91.372549%,69.411765%);fill-opacity:0.6;" d="M 431.734375 820.949219 L 506.734375 820.949219 L 506.734375 866.949219 L 431.734375 866.949219 Z M 431.734375 820.949219 "/>
<path style="fill:none;stroke-width:1;stroke-linecap:butt;stroke-linejoin:miter;stroke:rgb(0%,0%,0%);stroke-opacity:1;stroke-miterlimit:10;" d=""/>
<path style="fill:none;stroke-width:1;stroke-linecap:butt;stroke-linejoin:miter;stroke:rgb(0%,0%,0%);stroke-opacity:1;stroke-miterlimit:10;" d="M 593.988281 958.097656 L 668.988281 958.097656 L 668.988281 1004.097656 L 593.988281 1004.097656 Z M 593.988281 958.097656 "/>
<path style=" stroke:none;fill-rule:nonzero;fill:rgb(96.078431%,91.372549%,69.411765%);fill-opacity:0.6;" d="M 593.988281 958.097656 L 668.988281 958.097656 L 668.988281 1004.097656 L 593.988281 1004.097656 Z M 593.988281 958.097656 "/>
<path style="fill:none;stroke-width:1;stroke-linecap:butt;stroke-linejoin:miter;stroke:rgb(0%,0%,0%);stroke-opacity:1;stroke-miterlimit:10;" d=""/>
<path style="fill:none;stroke-width:1;stroke-linecap:butt;stroke-linejoin:miter;stroke:rgb(0%,0%,0%);stroke-opacity:1;stroke-miterlimit:10;" d="M 442.746094 699.976562 L 517.746094 699.976562 L 517.746094 745.976562 L 442.746094 745.976562 Z M 442.746094 699.976562 "/>
<path style=" stroke:none;fill-rule:nonzero;fill:rgb(96.078431%,91.372549%,69.411765%);fill-opacity:0.6;" d="M 442.746094 699.976562 L 517.746094 699.976562 L 517.746094 745.976562 L 442.746094 745.976562 Z M 442.746094 699.976562 "/>
<path style="fill:none;stroke-width:1;stroke-linecap:butt;stroke-linejoin:miter;stroke:rgb(0%,0%,0%);stroke-opacity:1;stroke-miterlimit:10;" d=""/>
<path style="fill:none;stroke-width:1;stroke-linecap:butt;stroke-linejoin:miter;stroke:rgb(0%,0%,0%);stroke-opacity:1;stroke-miterlimit:10;" d="M 578 689.515625 L 653 689.515625 L 653 735.515625 L 578 735.515625 Z M 578 689.515625 "/>
<path style=" stroke:none;fill-rule:nonzero;fill:rgb(96.078431%,91.372549%,69.411765%);fill-opacity:0.6;" d="M 578 689.515625 L 653 689.515625 L 653 735.515625 L 578 735.515625 Z M 578 689.515625 "/>
<path style="fill:none;stroke-width:1;stroke-linecap:butt;stroke-linejoin:miter;stroke:rgb(0%,0%,0%);stroke-opacity:1;stroke-miterlimit:10;" d=""/>
<path style="fill:none;stroke-width:1;stroke-linecap:butt;stroke-linejoin:miter;stroke:rgb(0%,0%,0%);stroke-opacity:1;stroke-miterlimit:10;" d="M 663.722656 657.753906 L 738.722656 657.753906 L 738.722656 703.753906 L 663.722656 703.753906 Z M 663.722656 657.753906 "/>
<path style=" stroke:none;fill-rule:nonzero;fill:rgb(96.078431%,91.372549%,69.411765%);fill-opacity:0.6;" d="M 663.722656 657.753906 L 738.722656 657.753906 L 738.722656 703.753906 L 663.722656 703.753906 Z M 663.722656 657.753906 "/>
<path style="fill:none;stroke-width:1;stroke-linecap:butt;stroke-linejoin:miter;stroke:rgb(0%,0%,0%);stroke-opacity:1;stroke-miterlimit:10;" d=""/>
<path style="fill:none;stroke-width:1;stroke-linecap:butt;stroke-linejoin:miter;stroke:rgb(0%,0%,0%);stroke-opacity:1;stroke-miterlimit:10;" d="M 572.355469 1330.105469 L 647.355469 1330.105469 L 647.355469 1376.105469 L 572.355469 1376.105469 Z M 572.355469 1330.105469 "/>
<path style=" stroke:none;fill-rule:nonzero;fill:rgb(96.078431%,91.372549%,69.411765%);fill-opacity:0.6;" d="M 572.355469 1330.105469 L 647.355469 1330.105469 L 647.355469 1376.105469 L 572.355469 1376.105469 Z M 572.355469 1330.105469 "/>
<path style="fill:none;stroke-width:1;stroke-linecap:butt;stroke-linejoin:miter;stroke:rgb(0%,0%,0%);stroke-opacity:1;stroke-miterlimit:10;" d=""/>
<path style="fill:none;stroke-width:1;stroke-linecap:butt;stroke-linejoin:miter;stroke:rgb(0%,0%,0%);stroke-opacity:1;stroke-miterlimit:10;" d="M 632.875 1501.703125 L 707.875 1501.703125 L 707.875 1547.703125 L 632.875 1547.703125 Z M 632.875 1501.703125 "/>
<path style=" stroke:none;fill-rule:nonzero;fill:rgb(96.078431%,91.372549%,69.411765%);fill-opacity:0.6;" d="M 632.875 1501.703125 L 707.875 1501.703125 L 707.875 1547.703125 L 632.875 1547.703125 Z M 632.875 1501.703125 "/>
<path style="fill:none;stroke-width:1;stroke-linecap:butt;stroke-linejoin:miter;stroke:rgb(0%,0%,0%);stroke-opacity:1;stroke-miterlimit:10;" d=""/>
<path style="fill:none;stroke-width:1;stroke-linecap:butt;stroke-linejoin:miter;stroke:rgb(0%,0%,0%);stroke-opacity:1;stroke-miterlimit:10;" d="M 415.421875 1376.886719 L 490.421875 1376.886719 L 490.421875 1422.886719 L 415.421875 1422.886719 Z M 415.421875 1376.886719 "/>
<path style=" stroke:none;fill-rule:nonzero;fill:rgb(96.078431%,91.372549%,69.411765%);fill-opacity:0.6;" d="M 415.421875 1376.886719 L 490.421875 1376.886719 L 490.421875 1422.886719 L 415.421875 1422.886719 Z M 415.421875 1376.886719 "/>
<path style="fill:none;stroke-width:1;stroke-linecap:butt;stroke-linejoin:miter;stroke:rgb(0%,0%,0%);stroke-opacity:1;stroke-miterlimit:10;" d=""/>
<path style="fill:none;stroke-width:1;stroke-linecap:butt;stroke-linejoin:miter;stroke:rgb(0%,0%,0%);stroke-opacity:1;stroke-miterlimit:10;" d="M 565.65625 1377.105469 L 640.65625 1377.105469 L 640.65625 1423.105469 L 565.65625 1423.105469 Z M 565.65625 1377.105469 "/>
<path style=" stroke:none;fill-rule:nonzero;fill:rgb(96.078431%,91.372549%,69.411765%);fill-opacity:0.6;" d="M 565.65625 1377.105469 L 640.65625 1377.105469 L 640.65625 1423.105469 L 565.65625 1423.105469 Z M 565.65625 1377.105469 "/>
<path style="fill:none;stroke-width:1;stroke-linecap:butt;stroke-linejoin:miter;stroke:rgb(0%,0%,0%);stroke-opacity:1;stroke-miterlimit:10;" d=""/>
<path style="fill:none;stroke-width:1;stroke-linecap:butt;stroke-linejoin:miter;stroke:rgb(0%,0%,0%);stroke-opacity:1;stroke-miterlimit:10;" d="M 459.449219 463.125 L 534.449219 463.125 L 534.449219 509.125 L 459.449219 509.125 Z M 459.449219 463.125 "/>
<path style=" stroke:none;fill-rule:nonzero;fill:rgb(96.078431%,91.372549%,69.411765%);fill-opacity:0.6;" d="M 459.449219 463.125 L 534.449219 463.125 L 534.449219 509.125 L 459.449219 509.125 Z M 459.449219 463.125 "/>
<path style="fill:none;stroke-width:1;stroke-linecap:butt;stroke-linejoin:miter;stroke:rgb(0%,0%,0%);stroke-opacity:1;stroke-miterlimit:10;" d=""/>
<path style="fill:none;stroke-width:1;stroke-linecap:butt;stroke-linejoin:miter;stroke:rgb(0%,0%,0%);stroke-opacity:1;stroke-miterlimit:10;" d="M 575.496094 1639.492188 L 650.496094 1639.492188 L 650.496094 1685.492188 L 575.496094 1685.492188 Z M 575.496094 1639.492188 "/>
<path style=" stroke:none;fill-rule:nonzero;fill:rgb(96.078431%,91.372549%,69.411765%);fill-opacity:0.6;" d="M 575.496094 1639.492188 L 650.496094 1639.492188 L 650.496094 1685.492188 L 575.496094 1685.492188 Z M 575.496094 1639.492188 "/>
<path style="fill:none;stroke-width:1;stroke-linecap:butt;stroke-linejoin:miter;stroke:rgb(0%,0%,0%);stroke-opacity:1;stroke-miterlimit:10;" d=""/>
<path style="fill:none;stroke-width:1;stroke-linecap:butt;stroke-linejoin:miter;stroke:rgb(0%,0%,0%);stroke-opacity:1;stroke-miterlimit:10;" d="M 340.210938 1480.820312 L 415.210938 1480.820312 L 415.210938 1526.820312 L 340.210938 1526.820312 Z M 340.210938 1480.820312 "/>
<path style=" stroke:none;fill-rule:nonzero;fill:rgb(96.078431%,91.372549%,69.411765%);fill-opacity:0.6;" d="M 340.210938 1480.820312 L 415.210938 1480.820312 L 415.210938 1526.820312 L 340.210938 1526.820312 Z M 340.210938 1480.820312 "/>
<path style="fill:none;stroke-width:1;stroke-linecap:butt;stroke-linejoin:miter;stroke:rgb(0%,0%,0%);stroke-opacity:1;stroke-miterlimit:10;" d=""/>
<path style="fill:none;stroke-width:1;stroke-linecap:butt;stroke-linejoin:miter;stroke:rgb(0%,0%,0%);stroke-opacity:1;stroke-miterlimit:10;" d="M 431.355469 985.492188 L 506.355469 985.492188 L 506.355469 1031.492188 L 431.355469 1031.492188 Z M 431.355469 985.492188 "/>
<path style=" stroke:none;fill-rule:nonzero;fill:rgb(96.078431%,91.372549%,69.411765%);fill-opacity:0.6;" d="M 431.355469 985.492188 L 506.355469 985.492188 L 506.355469 1031.492188 L 431.355469 1031.492188 Z M 431.355469 985.492188 "/>
<path style="fill:none;stroke-width:1;stroke-linecap:butt;stroke-linejoin:miter;stroke:rgb(0%,0%,0%);stroke-opacity:1;stroke-miterlimit:10;" d=""/>
<path style="fill:none;stroke-width:1;stroke-linecap:butt;stroke-linejoin:miter;stroke:rgb(0%,0%,0%);stroke-opacity:1;stroke-miterlimit:10;" d="M 591.636719 542.449219 L 666.636719 542.449219 L 666.636719 588.449219 L 591.636719 588.449219 Z M 591.636719 542.449219 "/>
<path style=" stroke:none;fill-rule:nonzero;fill:rgb(96.078431%,91.372549%,69.411765%);fill-opacity:0.6;" d="M 591.636719 542.449219 L 666.636719 542.449219 L 666.636719 588.449219 L 591.636719 588.449219 Z M 591.636719 542.449219 "/>
<path style="fill:none;stroke-width:1;stroke-linecap:butt;stroke-linejoin:miter;stroke:rgb(0%,0%,0%);stroke-opacity:1;stroke-miterlimit:10;" d=""/>
<path style="fill:none;stroke-width:1;stroke-linecap:butt;stroke-linejoin:miter;stroke:rgb(0%,0%,0%);stroke-opacity:1;stroke-miterlimit:10;" d="M 431.355469 891.492188 L 506.355469 891.492188 L 506.355469 937.492188 L 431.355469 937.492188 Z M 431.355469 891.492188 "/>
<path style=" stroke:none;fill-rule:nonzero;fill:rgb(96.078431%,91.372549%,69.411765%);fill-opacity:0.6;" d="M 431.355469 891.492188 L 506.355469 891.492188 L 506.355469 937.492188 L 431.355469 937.492188 Z M 431.355469 891.492188 "/>
<path style="fill:none;stroke-width:1;stroke-linecap:butt;stroke-linejoin:miter;stroke:rgb(0%,0%,0%);stroke-opacity:1;stroke-miterlimit:10;" d=""/>
<path style="fill:none;stroke-width:1;stroke-linecap:butt;stroke-linejoin:miter;stroke:rgb(0%,0%,0%);stroke-opacity:1;stroke-miterlimit:10;" d="M 271.097656 1410.355469 L 346.097656 1410.355469 L 346.097656 1456.355469 L 271.097656 1456.355469 Z M 271.097656 1410.355469 "/>
<path style=" stroke:none;fill-rule:nonzero;fill:rgb(96.078431%,91.372549%,69.411765%);fill-opacity:0.6;" d="M 271.097656 1410.355469 L 346.097656 1410.355469 L 346.097656 1456.355469 L 271.097656 1456.355469 Z M 271.097656 1410.355469 "/>
<path style="fill:none;stroke-width:1;stroke-linecap:butt;stroke-linejoin:miter;stroke:rgb(0%,0%,0%);stroke-opacity:1;stroke-miterlimit:10;" d=""/>
<path style="fill:none;stroke-width:1;stroke-linecap:butt;stroke-linejoin:miter;stroke:rgb(0%,0%,0%);stroke-opacity:1;stroke-miterlimit:10;" d="M 292.484375 1321.730469 L 367.484375 1321.730469 L 367.484375 1367.730469 L 292.484375 1367.730469 Z M 292.484375 1321.730469 "/>
<path style=" stroke:none;fill-rule:nonzero;fill:rgb(96.078431%,91.372549%,69.411765%);fill-opacity:0.6;" d="M 292.484375 1321.730469 L 367.484375 1321.730469 L 367.484375 1367.730469 L 292.484375 1367.730469 Z M 292.484375 1321.730469 "/>
<path style="fill:none;stroke-width:1;stroke-linecap:butt;stroke-linejoin:miter;stroke:rgb(0%,0%,0%);stroke-opacity:1;stroke-miterlimit:10;" d=""/>
<path style="fill:none;stroke-width:1;stroke-linecap:butt;stroke-linejoin:miter;stroke:rgb(0%,0%,0%);stroke-opacity:1;stroke-miterlimit:10;" d="M 626.300781 1772.929688 L 701.300781 1772.929688 L 701.300781 1818.929688 L 626.300781 1818.929688 Z M 626.300781 1772.929688 "/>
<path style=" stroke:none;fill-rule:nonzero;fill:rgb(96.078431%,91.372549%,69.411765%);fill-opacity:0.6;" d="M 626.300781 1772.929688 L 701.300781 1772.929688 L 701.300781 1818.929688 L 626.300781 1818.929688 Z M 626.300781 1772.929688 "/>
<path style="fill:none;stroke-width:1;stroke-linecap:butt;stroke-linejoin:miter;stroke:rgb(0%,0%,0%);stroke-opacity:1;stroke-miterlimit:10;" d=""/>
<path style="fill:none;stroke-width:1;stroke-linecap:butt;stroke-linejoin:miter;stroke:rgb(0%,0%,0%);stroke-opacity:1;stroke-miterlimit:10;" d="M 450.761719 1709.410156 L 525.761719 1709.410156 L 525.761719 1755.410156 L 450.761719 1755.410156 Z M 450.761719 1709.410156 "/>
<path style=" stroke:none;fill-rule:nonzero;fill:rgb(96.078431%,91.372549%,69.411765%);fill-opacity:0.6;" d="M 450.761719 1709.410156 L 525.761719 1709.410156 L 525.761719 1755.410156 L 450.761719 1755.410156 Z M 450.761719 1709.410156 "/>
<path style="fill:none;stroke-width:1;stroke-linecap:butt;stroke-linejoin:miter;stroke:rgb(0%,0%,0%);stroke-opacity:1;stroke-miterlimit:10;" d=""/>
<path style="fill:none;stroke-width:1;stroke-linecap:butt;stroke-linejoin:miter;stroke:rgb(0%,0%,0%);stroke-opacity:1;stroke-miterlimit:10;" d="M 211.21875 359.285156 L 286.21875 359.285156 L 286.21875 405.285156 L 211.21875 405.285156 Z M 211.21875 359.285156 "/>
<path style=" stroke:none;fill-rule:nonzero;fill:rgb(96.078431%,91.372549%,69.411765%);fill-opacity:0.6;" d="M 211.21875 359.285156 L 286.21875 359.285156 L 286.21875 405.285156 L 211.21875 405.285156 Z M 211.21875 359.285156 "/>
<path style="fill:none;stroke-width:1;stroke-linecap:butt;stroke-linejoin:miter;stroke:rgb(0%,0%,0%);stroke-opacity:1;stroke-miterlimit:10;" d=""/>
<path style="fill:none;stroke-width:1;stroke-linecap:butt;stroke-linejoin:miter;stroke:rgb(0%,0%,0%);stroke-opacity:1;stroke-miterlimit:10;" d="M 352.578125 229.21875 L 427.578125 229.21875 L 427.578125 275.21875 L 352.578125 275.21875 Z M 352.578125 229.21875 "/>
<path style=" stroke:none;fill-rule:nonzero;fill:rgb(96.078431%,91.372549%,69.411765%);fill-opacity:0.6;" d="M 352.578125 229.21875 L 427.578125 229.21875 L 427.578125 275.21875 L 352.578125 275.21875 Z M 352.578125 229.21875 "/>
<path style="fill:none;stroke-width:1;stroke-linecap:butt;stroke-linejoin:miter;stroke:rgb(0%,0%,0%);stroke-opacity:1;stroke-miterlimit:10;" d=""/>
<path style="fill:none;stroke-width:1;stroke-linecap:butt;stroke-linejoin:miter;stroke:rgb(0%,0%,0%);stroke-opacity:1;stroke-miterlimit:10;" d="M 624.035156 422.183594 L 699.035156 422.183594 L 699.035156 468.183594 L 624.035156 468.183594 Z M 624.035156 422.183594 "/>
<path style=" stroke:none;fill-rule:nonzero;fill:rgb(96.078431%,91.372549%,69.411765%);fill-opacity:0.6;" d="M 624.035156 422.183594 L 699.035156 422.183594 L 699.035156 468.183594 L 624.035156 468.183594 Z M 624.035156 422.183594 "/>
<path style="fill:none;stroke-width:1;stroke-linecap:butt;stroke-linejoin:miter;stroke:rgb(0%,0%,0%);stroke-opacity:1;stroke-miterlimit:10;" d=""/>
<path style="fill:none;stroke-width:1;stroke-linecap:butt;stroke-linejoin:miter;stroke:rgb(0%,0%,0%);stroke-opacity:1;stroke-miterlimit:10;" d="M 725.976562 469.84375 L 800.976562 469.84375 L 800.976562 515.84375 L 725.976562 515.84375 Z M 725.976562 469.84375 "/>
<path style=" stroke:none;fill-rule:nonzero;fill:rgb(96.078431%,91.372549%,69.411765%);fill-opacity:0.6;" d="M 725.976562 469.84375 L 800.976562 469.84375 L 800.976562 515.84375 L 725.976562 515.84375 Z M 725.976562 469.84375 "/>
<path style="fill:none;stroke-width:1;stroke-linecap:butt;stroke-linejoin:miter;stroke:rgb(0%,0%,0%);stroke-opacity:1;stroke-miterlimit:10;" d=""/>
<path style="fill:none;stroke-width:1;stroke-linecap:butt;stroke-linejoin:miter;stroke:rgb(0%,0%,0%);stroke-opacity:1;stroke-miterlimit:10;" d="M 571.585938 1897.46875 L 646.585938 1897.46875 L 646.585938 1943.46875 L 571.585938 1943.46875 Z M 571.585938 1897.46875 "/>
<path style=" stroke:none;fill-rule:nonzero;fill:rgb(96.078431%,91.372549%,69.411765%);fill-opacity:0.6;" d="M 571.585938 1897.46875 L 646.585938 1897.46875 L 646.585938 1943.46875 L 571.585938 1943.46875 Z M 571.585938 1897.46875 "/>
<path style="fill:none;stroke-width:1;stroke-linecap:butt;stroke-linejoin:miter;stroke:rgb(0%,0%,0%);stroke-opacity:1;stroke-miterlimit:10;" d=""/>
<path style="fill:none;stroke-width:1;stroke-linecap:butt;stroke-linejoin:miter;stroke:rgb(0%,0%,0%);stroke-opacity:1;stroke-miterlimit:10;" d="M 345.90625 1798.949219 L 420.90625 1798.949219 L 420.90625 1844.949219 L 345.90625 1844.949219 Z M 345.90625 1798.949219 "/>
<path style=" stroke:none;fill-rule:nonzero;fill:rgb(96.078431%,91.372549%,69.411765%);fill-opacity:0.6;" d="M 345.90625 1798.949219 L 420.90625 1798.949219 L 420.90625 1844.949219 L 345.90625 1844.949219 Z M 345.90625 1798.949219 "/>
<path style="fill:none;stroke-width:1;stroke-linecap:butt;stroke-linejoin:miter;stroke:rgb(0%,0%,0%);stroke-opacity:1;stroke-miterlimit:10;" d=""/>
<path style="fill:none;stroke-width:1;stroke-linecap:butt;stroke-linejoin:miter;stroke:rgb(0%,0%,0%);stroke-opacity:1;stroke-miterlimit:10;" d="M 87.5 313.792969 L 162.5 313.792969 L 162.5 359.792969 L 87.5 359.792969 Z M 87.5 313.792969 "/>
<path style=" stroke:none;fill-rule:nonzero;fill:rgb(96.078431%,91.372549%,69.411765%);fill-opacity:0.6;" d="M 87.5 313.792969 L 162.5 313.792969 L 162.5 359.792969 L 87.5 359.792969 Z M 87.5 313.792969 "/>
<path style="fill:none;stroke-width:1;stroke-linecap:butt;stroke-linejoin:miter;stroke:rgb(0%,0%,0%);stroke-opacity:1;stroke-miterlimit:10;" d=""/>
<path style="fill:none;stroke-width:1;stroke-linecap:butt;stroke-linejoin:miter;stroke:rgb(0%,0%,0%);stroke-opacity:1;stroke-miterlimit:10;" d="M 326.484375 102 L 401.484375 102 L 401.484375 148 L 326.484375 148 Z M 326.484375 102 "/>
<path style=" stroke:none;fill-rule:nonzero;fill:rgb(96.078431%,91.372549%,69.411765%);fill-opacity:0.6;" d="M 326.484375 102 L 401.484375 102 L 401.484375 148 L 326.484375 148 Z M 326.484375 102 "/>
<path style="fill:none;stroke-width:1;stroke-linecap:butt;stroke-linejoin:miter;stroke:rgb(0%,0%,0%);stroke-opacity:1;stroke-miterlimit:10;" d=""/>
<path style="fill:none;stroke-width:1;stroke-linecap:butt;stroke-linejoin:miter;stroke:rgb(0%,0%,0%);stroke-opacity:1;stroke-miterlimit:10;" d="M 1134.355469 1338.097656 L 1258.355469 1338.097656 L 1258.355469 1406.097656 L 1134.355469 1406.097656 Z M 1134.355469 1338.097656 "/>
<path style=" stroke:none;fill-rule:nonzero;fill:rgb(96.078431%,91.372549%,69.411765%);fill-opacity:0.6;" d="M 1134.355469 1338.097656 L 1258.355469 1338.097656 L 1258.355469 1406.097656 L 1134.355469 1406.097656 Z M 1134.355469 1338.097656 "/>
<path style="fill:none;stroke-width:1;stroke-linecap:butt;stroke-linejoin:miter;stroke:rgb(0%,0%,0%);stroke-opacity:1;stroke-miterlimit:10;" d=""/>
<path style="fill:none;stroke-width:1;stroke-linecap:butt;stroke-linejoin:miter;stroke:rgb(0%,0%,0%);stroke-opacity:1;stroke-miterlimit:10;" d="M 687.148438 298.824219 L 762.148438 298.824219 L 762.148438 344.824219 L 687.148438 344.824219 Z M 687.148438 298.824219 "/>
<path style=" stroke:none;fill-rule:nonzero;fill:rgb(96.078431%,91.372549%,69.411765%);fill-opacity:0.6;" d="M 687.148438 298.824219 L 762.148438 298.824219 L 762.148438 344.824219 L 687.148438 344.824219 Z M 687.148438 298.824219 "/>
<path style="fill:none;stroke-width:1;stroke-linecap:butt;stroke-linejoin:miter;stroke:rgb(0%,0%,0%);stroke-opacity:1;stroke-miterlimit:10;" d=""/>
<path style="fill:none;stroke-width:1;stroke-linecap:butt;stroke-linejoin:miter;stroke:rgb(0%,0%,0%);stroke-opacity:1;stroke-miterlimit:10;" d="M 837.269531 381.382812 L 912.269531 381.382812 L 912.269531 427.382812 L 837.269531 427.382812 Z M 837.269531 381.382812 "/>
<path style=" stroke:none;fill-rule:nonzero;fill:rgb(96.078431%,91.372549%,69.411765%);fill-opacity:0.6;" d="M 837.269531 381.382812 L 912.269531 381.382812 L 912.269531 427.382812 L 837.269531 427.382812 Z M 837.269531 381.382812 "/>
<path style="fill:none;stroke-width:1;stroke-linecap:butt;stroke-linejoin:miter;stroke:rgb(0%,0%,0%);stroke-opacity:1;stroke-miterlimit:10;" d=""/>
<path style="fill:none;stroke-width:1;stroke-linecap:butt;stroke-linejoin:miter;stroke:rgb(0%,0%,0%);stroke-opacity:1;stroke-miterlimit:10;" d="M 351.105469 359.644531 L 426.105469 359.644531 L 426.105469 422.644531 L 351.105469 422.644531 Z M 351.105469 359.644531 "/>
<path style=" stroke:none;fill-rule:nonzero;fill:rgb(96.078431%,91.372549%,69.411765%);fill-opacity:0.6;" d="M 351.105469 359.644531 L 426.105469 359.644531 L 426.105469 422.644531 L 351.105469 422.644531 Z M 351.105469 359.644531 "/>
<path style="fill:none;stroke-width:1;stroke-linecap:butt;stroke-linejoin:miter;stroke:rgb(0%,0%,0%);stroke-opacity:1;stroke-miterlimit:10;" d=""/>
</g>
</svg>
